<svg xmlns="http://www.w3.org/2000/svg" x="0px" y="0px" width="100" height="100" viewBox="0 0 48 48">
<path d="M 22.253906 3.5 C 20.890312 3.5 19.753906 4.6364058 19.753906 6 A 1.50015 1.50015 0 0 0 22.673828 6.5 L 25.248047 6.5 L 25.248047 11.804688 C 25.248047 12.860767 25.947798 13.771864 26.806641 14.121094 C 27.665483 14.470324 28.801868 14.306819 29.539062 13.550781 L 33.087891 9.9101562 L 34.628906 11.490234 L 30.896484 15.042969 C 30.127215 15.774598 29.95135 16.916367 30.296875 17.78125 C 30.6424 18.646133 31.557452 19.353516 32.619141 19.353516 L 37.966797 19.353516 L 37.966797 21.582031 L 32.527344 21.582031 C 31.470883 21.582031 30.560005 22.282769 30.210938 23.142578 C 29.86187 24.002387 30.027594 25.138612 30.785156 25.875 L 34.621094 29.601562 L 33.085938 31.150391 L 31.474609 29.53125 A 1.50015 1.50015 0 1 0 29.349609 31.646484 L 31.314453 33.623047 C 32.279066 34.592594 33.897457 34.592407 34.861328 33.621094 L 37.107422 31.357422 C 38.074563 30.38288 38.057947 28.759345 37.074219 27.802734 L 33.759766 24.582031 L 38.466797 24.582031 C 39.830391 24.582031 40.966797 23.445625 40.966797 22.082031 L 40.966797 18.853516 C 40.966797 17.489921 39.830391 16.353516 38.466797 16.353516 L 33.871094 16.353516 L 37.064453 13.314453 C 38.05929 12.366519 38.0903 10.741922 37.130859 9.7578125 A 1.50015 1.50015 0 0 0 37.128906 9.7578125 L 34.876953 7.4492188 C 33.908568 6.4561922 32.263973 6.4574503 31.296875 7.4492188 L 28.248047 10.576172 L 28.248047 6 C 28.248047 4.6364058 27.111641 3.5 25.748047 3.5 L 22.253906 3.5 z M 14.916016 6.6933594 C 14.261827 6.6933594 13.606866 6.9420918 13.123047 7.4394531 L 10.865234 9.7617188 C 9.9093011 10.744754 9.9406398 12.368314 10.933594 13.314453 L 14.138672 16.369141 L 9.5332031 16.369141 C 8.1696089 16.369141 7.0332031 17.505546 7.0332031 18.869141 L 7.0332031 22.099609 C 7.0332031 23.463204 8.1696089 24.599609 9.5332031 24.599609 L 14.230469 24.599609 L 10.917969 27.816406 C 9.9298095 28.774921 9.9193608 30.403737 10.892578 31.376953 L 13.144531 33.630859 C 14.110621 34.596949 15.722271 34.593257 16.685547 33.625 L 24.001953 26.273438 L 25.517578 27.796875 A 1.50015 1.50015 0 1 0 27.642578 25.681641 L 25.773438 23.802734 C 24.808823 22.833187 23.193129 22.833187 22.228516 23.802734 L 14.912109 31.154297 L 13.373047 29.615234 L 17.205078 25.892578 A 1.50015 1.50015 0 0 0 17.205078 25.890625 C 17.962641 25.154237 18.128365 24.018012 17.779297 23.158203 C 17.430229 22.298394 16.519352 21.599609 15.462891 21.599609 L 10.033203 21.599609 L 10.033203 19.369141 L 15.386719 19.369141 C 16.448029 19.369141 17.361051 18.663015 17.707031 17.798828 C 18.053012 16.934642 17.881118 15.793107 17.113281 15.060547 A 1.50015 1.50015 0 0 0 17.111328 15.058594 L 13.369141 11.490234 L 14.916016 9.8984375 L 18.462891 13.546875 C 19.199822 14.303819 20.336071 14.467978 21.195312 14.119141 C 22.054555 13.770303 22.755859 12.859373 22.755859 11.802734 L 22.755859 11.064453 A 1.50015 1.50015 0 0 0 19.814453 10.630859 L 16.708984 7.4394531 C 16.225165 6.9420918 15.570204 6.6933594 14.916016 6.6933594 z M 22.238281 29.089844 C 20.874687 29.089844 19.738281 30.22625 19.738281 31.589844 L 19.738281 34.277344 A 1.50015 1.50015 0 1 0 22.738281 34.277344 L 22.738281 32.089844 L 25.234375 32.089844 L 25.234375 41.5 L 22.738281 41.5 L 22.738281 39.935547 A 1.50015 1.50015 0 1 0 19.738281 39.935547 L 19.738281 42 C 19.738281 43.363594 20.874687 44.5 22.238281 44.5 L 25.734375 44.5 C 27.097969 44.5 28.234375 43.363594 28.234375 42 L 28.234375 31.589844 C 28.234375 30.22625 27.097969 29.089844 25.734375 29.089844 L 22.238281 29.089844 z"></path>
</svg>