<svg xmlns="http://www.w3.org/2000/svg" width="954" height="1063" fill="none" viewBox="0 0 954 1063"><path fill="#030705" d="M298.274 794.255V615.661L563.815 768.406L755.334 654.434V824.804L563.815 947L298.274 794.255Z"/><path stroke="#09120D" stroke-linecap="square" stroke-width="2" d="M563.815 768.406V944.65" opacity=".6"/><path fill="#161616" d="M765.037 623.667L491.308 463.8C490.372 463.253 489.215 463.254 488.28 463.801L287.422 581.348C285.443 582.507 285.442 585.367 287.421 586.526L562.289 747.536C563.231 748.088 564.399 748.085 565.338 747.527L765.057 628.837C767.022 627.669 767.011 624.82 765.037 623.667Z"/><path fill="#080C0A" d="M286 609.436V585.937L563.816 748.432L767.434 627.235V647.21L563.816 768.406L286 609.436Z"/><path fill="#156984" d="M708.337 592.162C709.511 582.762 714.678 565.937 697.631 558.088L668.388 568.662L708.337 592.162Z"/><g filter="url(#filter0_f_22_2)" opacity=".25"><circle cx="550.5" cy="512.5" r="200.5" fill="url(#paint0_radial_22_2)"/></g><path fill="#12D566" d="M578.207 504.5L515.643 513.438L539.142 541.637L596.455 538.331C598.875 538.191 601.137 537.081 602.728 535.251L623.739 511.088L627.264 545.162L631.964 548.687L600.24 558.087L606.115 583.936C647.559 579.823 671.486 577.639 712.631 563.408C715.638 562.368 717.528 559.4 717.372 556.223C714.908 505.817 737.843 459.839 675.438 439.416H648.413C639.741 443.718 634.546 445.449 626.778 447.871C624.803 448.486 623.064 449.697 621.806 451.34L583.427 501.445C582.154 503.108 580.28 504.204 578.207 504.5Z"/><path stroke="#06AD4F" stroke-linecap="round" stroke-width="2.5" d="M625.169 489.94C622.645 502.103 623.994 508.739 625.169 515.789"/><path stroke="#06AD4F" stroke-linecap="round" stroke-width="4" d="M684.837 535.763C662.71 537.451 647.26 543.033 620.214 552.212"/><path stroke="#06AD4F" stroke-linecap="round" stroke-width="4" d="M688.362 477.014C684.188 499.321 684.213 513.622 686.012 540.462"/><path fill="#FFA59B" d="M677.788 400.642C667.214 401.817 650.764 400.642 630.79 380.668L626.09 398.292C621.076 425.98 632.017 428.98 647.239 438.241C643.714 465.265 675.438 478.19 677.788 438.241C679.09 426.274 679.605 419.114 677.788 400.642Z"/><path fill="#000" d="M676.415 402.543L678.04 435.891C737.071 406.515 676.448 329.386 637.838 354.819C619.833 351.904 609.639 373.618 617.7 381.995C602.32 434.201 633.065 444.592 643.713 435.891C630.015 426.2 623.452 420.136 628.132 395.326C628.132 391.487 630.18 387.718 630.18 384.345C643.989 400.062 652.202 400.621 674.413 400.64C675.48 400.641 676.363 401.477 676.415 402.543Z"/><path fill="url(#paint1_linear_22_2)" d="M671.036 385.976C671.036 361.945 634.835 353.587 624.492 389.11H621.389C629.971 347.275 675.628 351.233 681.017 382.202C681.322 383.956 682.102 385.675 683.261 387.026C716.875 426.202 639.185 440.447 671.036 385.976Z"/><path fill="url(#paint2_linear_22_2)" d="M570.866 554.561L631.964 596.86L570.866 629.759V554.561Z"/><path fill="#FFA59B" d="M560.291 559.963C573.944 557.932 581.779 557.296 600.549 559.34C601.247 559.416 601.867 559.867 602.155 560.507C611.274 580.732 609.45 587.047 586.837 585.343C586.837 588.637 576.74 596.861 572.272 594.728L560.291 559.963Z"/><path fill="#1D1D1D" d="M473.109 489.544L471.694 490.722L564.678 638.333C565.245 639.235 566.42 639.533 567.349 639.011L631.454 603.023C631.769 602.846 631.964 602.512 631.964 602.151V597.359C631.964 597.133 631.724 596.989 631.524 597.094L572.041 628.585V543.942C572.041 542.516 571.282 541.198 570.049 540.482L481.1 488.87C478.559 487.395 475.367 487.665 473.109 489.544Z"/><path fill="#C67168" d="M640.801 433.717C643.104 436.404 651.55 441.395 656.099 440.102C650.33 438.965 645.734 437.318 640.801 433.717Z"/><path fill="#010101" d="M468.644 491.04V582.761L564.542 637.726C564.742 637.841 564.991 637.697 564.991 637.466V543.971C564.991 543.254 564.608 542.592 563.986 542.236L471.639 489.305C470.306 488.541 468.644 489.504 468.644 491.04Z"/><ellipse cx="513.765" cy="563.758" fill="#1E1E1E" rx="10.911" ry="9.232" transform="rotate(-95.8929 513.765 563.758)"/><path fill="#161616" d="M640.189 642.684V612.135H674.263V642.684C663.688 654.434 650.764 654.434 640.189 642.684Z"/><ellipse cx="657.226" cy="610.96" fill="#1F1F1F" rx="17.037" ry="10.575"/><ellipse cx="657.343" cy="611.43" fill="url(#paint3_linear_22_2)" rx="12.455" ry="7.05"/><path fill="url(#paint4_linear_22_2)" d="M659.749 622.71H654.951C654.619 622.71 654.379 623.029 654.466 623.35C656.516 630.959 655.495 635.552 654.386 642.101C654.334 642.406 654.569 642.684 654.878 642.684H659.739C659.984 642.684 660.192 642.506 660.232 642.265C661.327 635.545 661.559 630.262 660.239 623.118C660.196 622.882 659.989 622.71 659.749 622.71Z"/><g filter="url(#filter1_f_22_2)"><path fill="url(#paint5_linear_22_2)" d="M419.296 613.31L470.994 580.411L565.939 638.723L532.092 679.108L419.296 613.31Z"/></g><g filter="url(#filter2_f_22_2)" opacity=".5"><path fill="url(#paint6_linear_22_2)" d="M588.822 676.148L641.417 643.249C654.256 652.145 660.685 652.608 674.049 643.249L652.934 685.863L588.822 676.148Z"/></g><defs><filter id="filter0_f_22_2" width="1101" height="1101" x="0" y="-38" color-interpolation-filters="sRGB" filterUnits="userSpaceOnUse"><feFlood flood-opacity="0" result="BackgroundImageFix"/><feBlend in="SourceGraphic" in2="BackgroundImageFix" mode="normal" result="shape"/><feGaussianBlur result="effect1_foregroundBlur_22_2" stdDeviation="175"/></filter><filter id="filter1_f_22_2" width="154.643" height="106.697" x="415.296" y="576.411" color-interpolation-filters="sRGB" filterUnits="userSpaceOnUse"><feFlood flood-opacity="0" result="BackgroundImageFix"/><feBlend in="SourceGraphic" in2="BackgroundImageFix" mode="normal" result="shape"/><feGaussianBlur result="effect1_foregroundBlur_22_2" stdDeviation="2"/></filter><filter id="filter2_f_22_2" width="93.227" height="50.614" x="584.822" y="639.249" color-interpolation-filters="sRGB" filterUnits="userSpaceOnUse"><feFlood flood-opacity="0" result="BackgroundImageFix"/><feBlend in="SourceGraphic" in2="BackgroundImageFix" mode="normal" result="shape"/><feGaussianBlur result="effect1_foregroundBlur_22_2" stdDeviation="2"/></filter><radialGradient id="paint0_radial_22_2" cx="0" cy="0" r="1" gradientTransform="translate(597.676 429.941) rotate(114.538) scale(298.195)" gradientUnits="userSpaceOnUse"><stop stop-color="#16E16E"/><stop offset="1" stop-color="#393939"/></radialGradient><linearGradient id="paint1_linear_22_2" x1="623.909" x2="646.542" y1="391.103" y2="378.404" gradientUnits="userSpaceOnUse"><stop stop-opacity="0"/><stop offset="1" stop-color="#fff"/></linearGradient><linearGradient id="paint2_linear_22_2" x1="601.415" x2="601.415" y1="554.561" y2="629.759" gradientUnits="userSpaceOnUse"><stop stop-color="#272727"/><stop offset="1"/></linearGradient><linearGradient id="paint3_linear_22_2" x1="649.588" x2="674.262" y1="607.435" y2="619.185" gradientUnits="userSpaceOnUse"><stop stop-color="#0E0E0E"/><stop offset="1" stop-color="#151515" stop-opacity="0"/></linearGradient><linearGradient id="paint4_linear_22_2" x1="657.716" x2="657" y1="622.71" y2="645" gradientUnits="userSpaceOnUse"><stop stop-color="#171717"/><stop offset="1" stop-color="#212121"/></linearGradient><linearGradient id="paint5_linear_22_2" x1="528.567" x2="482.744" y1="598.035" y2="662.658" gradientUnits="userSpaceOnUse"><stop/><stop offset=".813" stop-opacity="0"/></linearGradient><linearGradient id="paint6_linear_22_2" x1="698.093" x2="652.27" y1="660.874" y2="725.497" gradientUnits="userSpaceOnUse"><stop/><stop offset=".813" stop-opacity="0"/></linearGradient></defs></svg>