<svg xmlns="http://www.w3.org/2000/svg" width="110" height="76" fill="none" viewBox="0 0 110 76"><path stroke="#00E8A6" stroke-width="2" d="M104.483 1.20096H4.80403C2.81423 1.20096 1.20117 2.81401 1.20117 4.80382V63.6505C1.20117 65.6403 2.81423 67.2533 4.80403 67.2533H104.483C106.473 67.2533 108.086 65.6403 108.086 63.6505V4.80382C108.086 2.81401 106.473 1.20096 104.483 1.20096Z"/><path fill="#00E8A6" d="M106.885 70.8562H2.4019C1.07537 70.8562 0 71.9316 0 73.2581C0 74.5846 1.07537 75.66 2.4019 75.66H106.885C108.211 75.66 109.287 74.5846 109.287 73.2581C109.287 71.9316 108.211 70.8562 106.885 70.8562Z"/><path fill="#00E8A6" d="M45.9528 21.5643C35.3383 21.5643 28.9698 30.0789 28.9698 34.3367C28.9698 38.5944 31.0923 41.7875 35.3383 41.7875C39.5843 41.7875 41.7077 42.8514 41.7077 46.0445C41.7077 50.3014 44.8915 53.4945 49.1375 53.4945C62.9367 53.4945 69.3044 46.0445 69.3044 38.5944C69.3035 25.822 58.6874 21.5643 45.9528 21.5643ZM43.2992 31.1436C41.8337 31.1436 40.6456 29.9521 40.6456 28.4824C40.6437 27.015 41.8318 25.8239 43.2992 25.822C44.7666 25.8239 45.9547 27.015 45.9528 28.4824C45.9528 29.9529 44.7647 31.1436 43.2992 31.1436ZM51.7894 31.1436C50.322 31.1413 49.1343 29.9498 49.1367 28.4824C49.1348 27.0153 50.3224 25.8244 51.7894 25.822C53.2569 25.8239 54.4449 27.015 54.4431 28.4824C54.4454 29.9501 53.2572 31.1417 51.7894 31.1436ZM60.2814 35.4005C58.8139 35.3991 57.6258 34.2076 57.6286 32.7401C57.6258 31.2725 58.8138 30.0808 60.2814 30.0789C61.7494 30.0803 62.9382 31.2721 62.9358 32.7401C62.9382 34.2081 61.7493 35.3996 60.2814 35.4005ZM35.8694 37.529C34.4048 37.529 33.2157 36.3374 33.2157 34.8678C33.2143 33.4007 34.4023 32.2101 35.8694 32.2082C37.3365 32.2096 38.5245 33.4006 38.5222 34.8678C38.5222 36.3383 37.334 37.529 35.8694 37.529ZM49.1367 49.2375C47.3779 49.2375 45.9528 47.8082 45.9528 46.0453C45.9496 44.2839 47.3753 42.8537 49.1367 42.8514C50.8954 42.8514 52.3205 44.2798 52.3205 46.0453C52.3205 47.8082 50.8954 49.2375 49.1367 49.2375ZM45.9528 19.1624C53.3826 19.1624 59.3466 20.5392 63.6792 23.2545C66.2313 24.8539 68.2086 26.9206 69.556 29.3972C70.9826 32.0194 71.7061 35.1137 71.7063 38.5943C71.7063 40.8514 71.2235 43.0331 70.2715 45.079C69.2809 47.2076 67.8246 49.0904 65.943 50.6753C61.8878 54.0909 56.0766 55.8964 49.1375 55.8964C46.4412 55.8964 43.9524 54.8897 42.1296 53.0618C40.3086 51.2358 39.3058 48.7437 39.3058 46.0445C39.3058 45.0458 39.0255 44.8702 38.84 44.754C38.4289 44.4965 37.4877 44.1895 35.3383 44.1895C32.5679 44.1895 30.2669 43.1407 28.6842 41.1566C27.2997 39.4211 26.5679 37.0628 26.5679 34.3367C26.5679 32.8456 27.0709 31.1363 28.0227 29.3936C28.9576 27.6815 30.2855 26.0166 31.8627 24.5788C33.6456 22.9536 35.6777 21.6626 37.9028 20.7419C40.4354 19.6938 43.1438 19.1624 45.9528 19.1624ZM43.2992 28.7417C43.438 28.7417 43.5509 28.6254 43.5509 28.4824C43.5511 28.3397 43.4384 28.2257 43.2991 28.224C43.2303 28.2248 43.1707 28.25 43.122 28.2989C43.0724 28.3485 43.0474 28.4092 43.0475 28.4793C43.0475 28.6254 43.1604 28.7417 43.2992 28.7417ZM51.7899 28.7417C51.8586 28.7408 51.918 28.7155 51.9667 28.6667C52.0162 28.6171 52.0413 28.5563 52.0412 28.4862V28.4794C52.0413 28.3399 51.9289 28.226 51.7898 28.224C51.6508 28.226 51.5384 28.3399 51.5386 28.4793V28.4862C51.5383 28.6258 51.6508 28.7397 51.7899 28.7417ZM60.2818 32.9986C60.3509 32.9981 60.4107 32.973 60.4597 32.9239C60.5091 32.8744 60.534 32.8139 60.5339 32.744V32.7363C60.5341 32.6662 60.509 32.6054 60.4595 32.5558C60.4099 32.5061 60.3492 32.4809 60.2791 32.4809C60.2145 32.4809 60.154 32.5061 60.1047 32.5556C60.0553 32.6051 60.0304 32.6657 60.0305 32.7356V32.7447C60.0304 32.8144 60.0552 32.8748 60.1045 32.9241C60.1532 32.973 60.2129 32.9981 60.2818 32.9986ZM35.8694 35.1271C36.0077 35.1271 36.1203 35.0107 36.1203 34.8678C36.1204 34.7943 36.0955 34.7339 36.0463 34.6846C35.9971 34.6353 35.9368 34.6102 35.8671 34.6102C35.7318 34.6103 35.6175 34.7249 35.6176 34.8655C35.6176 35.0107 35.7306 35.1271 35.8694 35.1271ZM49.1367 46.8356C49.5678 46.8356 49.9186 46.4811 49.9186 46.0453C49.9186 45.6086 49.5678 45.2533 49.1367 45.2533C48.8564 45.2536 48.67 45.3982 48.5841 45.4844C48.4982 45.5705 48.3542 45.7574 48.3547 46.0408C48.3547 46.4811 48.7055 46.8356 49.1367 46.8356Z"/><path fill="#0D0C0C" d="M68.6595 45.2021C66.6625 45.2021 65.1228 44.4807 64.0832 43.058C63.5016 42.262 63.0843 41.2682 62.8433 40.1205C63.5546 40.5677 64.0656 40.776 64.5326 40.776C65.4091 40.776 66.1748 40.2492 66.4833 39.434C66.9398 38.2311 67.5541 37.3887 68.3609 36.8598C68.9383 36.4813 69.6214 36.2516 70.4855 36.1486L74.7183 39.6759C74.6799 43.1385 72.4212 45.2021 68.6595 45.2021ZM77.6746 36.1268C77.4492 36.1268 77.2151 36.1018 76.9521 36.0488L73.7755 33.4018C73.5863 32.9201 73.4906 32.431 73.4906 31.9444C73.4906 30.169 73.7881 29.8217 79.859 24.5118C81.4577 23.1134 83.4474 21.3731 85.8903 19.1908C86.3418 18.7852 86.8667 18.5631 87.371 18.5631C88.2694 18.5631 89.2392 19.1785 89.2392 20.1727C89.2392 20.8609 88.911 21.5947 88.5883 22.223C84.6193 29.6302 82.9439 32.2014 81.6504 33.7816C80.0447 35.7431 78.9767 36.1268 77.6746 36.1268Z"/><path fill="#00E8A6" d="M68.6597 44.0011C70.2004 44.0011 71.4546 43.6009 72.2866 42.8436C72.9786 42.2138 73.3816 41.3313 73.4889 40.2146L70.1329 37.4179C69.0202 37.6499 68.214 38.2587 67.6067 39.8591C67.1517 41.0615 66.0679 41.8663 64.8011 41.9664C64.8807 42.1007 64.9647 42.2285 65.0531 42.3495C65.8652 43.4609 67.0449 44.0011 68.6597 44.0011ZM77.6748 34.9259C78.5173 34.9259 79.2766 34.7856 80.7212 33.0209C82.4471 30.9125 84.6895 26.9566 87.5249 21.6653C87.7481 21.2299 88.0384 20.6096 88.0384 20.1727C88.0384 19.9703 87.7016 19.7641 87.3711 19.7641C87.1697 19.7641 86.9172 19.8828 86.6958 20.0818L86.6906 20.0865C84.2429 22.273 82.2506 24.0155 80.6498 25.4157C77.8016 27.9069 76.0824 29.4106 75.2609 30.3918C74.7143 31.0447 74.6917 31.2526 74.6917 31.9444C74.6917 32.1914 74.7285 32.442 74.8015 32.6934L77.4673 34.9147C77.54 34.9222 77.6087 34.9259 77.6748 34.9259ZM68.6597 46.4031C63.5509 46.4031 61.3995 42.2976 61.3989 37.6267C61.9542 38.0056 63.9026 39.575 64.5327 39.575C64.9065 39.575 65.227 39.3612 65.3603 39.009C66.5321 35.9211 68.5973 35.0544 70.8729 34.9081L75.8649 39.068C75.883 39.241 75.9199 39.4094 75.9199 39.5858C75.9199 43.9204 72.9625 46.4031 68.6597 46.4031ZM77.6748 37.3278C77.2352 37.3278 76.8138 37.258 76.4049 37.1559L72.785 34.1395C72.4741 33.4623 72.2898 32.7215 72.2898 31.9444C72.2898 28.8957 73.4962 28.6524 85.0904 18.2952C85.7053 17.7427 86.5113 17.3622 87.3711 17.3622C88.9656 17.3622 90.4403 18.5329 90.4403 20.1727C90.4403 21.0881 90.0705 21.9673 89.6519 22.7812C83.2396 34.7487 81.1977 37.3278 77.6748 37.3278Z"/></svg>