<svg xmlns="http://www.w3.org/2000/svg" width="67" height="76" fill="none" viewBox="0 0 67 76"><path fill="#B06BFF" d="M33.5274 4.51886L7.83657 19.3327L33.5093 34.0911L58.7276 19.1856L33.5274 4.51886ZM33.5365 0.000244141L66.4559 19.1597L33.5365 38.6168L0.000488281 19.3379L33.5365 0.000244141Z"/><path fill="#B06BFF" d="M64.4423 22.447L35.283 39.7304L35.377 72.2148L64.4982 54.759L64.4423 22.447ZM66.3915 19.0192L66.455 55.8653L33.4321 75.66L33.3247 38.6185L66.3915 19.0192Z"/><path fill="#B06BFF" d="M32.0036 73.0326L1.46826 54.7185V21.8094L32.0036 38.9039V73.0326Z"/><path fill="#B06BFF" d="M2.9344 24.3106V53.8882L30.5373 70.4435V39.7635L2.9344 24.3106ZM0.00195312 19.3082L33.4697 38.0445V75.6217L0.00195312 55.5489V19.3082Z"/><path stroke="#B06BFF" stroke-width="3" d="M64.5073 21.6864V55.8982"/><path stroke="#B06BFF" stroke-width="3" d="M35.1826 72.5154L65.4845 54.9208"/></svg>