<svg xmlns="http://www.w3.org/2000/svg" width="64" height="77" fill="none" viewBox="0 0 64 77"><path stroke="orange" stroke-width="3" d="M42.9418 2.23358H4.28938C3.15389 2.23358 2.2334 3.15407 2.2334 4.28956V73.3704C2.2334 74.5059 3.15389 75.4264 4.28938 75.4264H42.9418C44.0773 75.4264 44.9977 74.5059 44.9977 73.3704V4.28956C44.9977 3.15407 44.0773 2.23358 42.9418 2.23358Z"/><path fill="orange" d="M61.0347 46.2315H31.4286C30.066 46.2315 28.9614 47.3361 28.9614 48.6987V64.3241C28.9614 65.6867 30.066 66.7913 31.4286 66.7913H61.0347C62.3973 66.7913 63.5019 65.6867 63.5019 64.3241V48.6987C63.5019 47.3361 62.3973 46.2315 61.0347 46.2315Z"/><path stroke="#212226" stroke-linecap="round" stroke-linejoin="round" stroke-width="2" d="M51.3315 61.352L56.6031 56.9851L51.3315 52.619"/><path stroke="#212226" stroke-linecap="round" stroke-linejoin="round" stroke-width="2" d="M41.002 52.619L35.7305 56.9859L41.002 61.3528"/><path stroke="#212226" stroke-linecap="round" stroke-width="2" d="M48.5406 50.54L43.1128 63.4302"/></svg>