<svg xmlns="http://www.w3.org/2000/svg" width="71" height="70" fill="none" viewBox="0 0 71 70"><path stroke="#FFA1FF" stroke-linecap="round" stroke-linejoin="round" stroke-width="3" d="M2 60.5497V37.1296C2 17.7287 16.9986 2 35.5 2C54.0014 2 69 17.7287 69 37.1296V60.5497"/><path fill="#FFA1FF" d="M43.3184 53.3942C43.7509 53.6199 44.1101 53.9448 44.3599 54.3364C44.6097 54.7279 44.7412 55.1722 44.7412 55.6245C44.7412 56.0768 44.6097 56.5211 44.3599 56.9126C44.1101 57.3041 43.7509 57.6291 43.3184 57.8547L31.8056 63.8739C31.3738 64.0998 30.884 64.2187 30.3855 64.2186C29.8869 64.2186 29.3971 64.0995 28.9654 63.8734C28.5337 63.6474 28.1753 63.3223 27.9263 62.9309C27.6772 62.5394 27.5462 62.0955 27.5465 61.6436V49.6036C27.5462 49.1518 27.6772 48.7078 27.9263 48.3164C28.1753 47.925 28.5337 47.5999 28.9654 47.3738C29.3971 47.1477 29.8869 47.0287 30.3855 47.0286C30.884 47.0286 31.3738 47.1475 31.8056 47.3734L43.3184 53.3942Z"/><path stroke="#FFA1FF" stroke-width="3" d="M60.8619 43.898H55.7841C54.4773 43.898 53.418 45.1277 53.418 46.6447V65.2652C53.418 66.7822 54.4773 68.012 55.7841 68.012H60.8619C62.1687 68.012 63.228 66.7822 63.228 65.2652V46.6447C63.228 45.1277 62.1687 43.898 60.8619 43.898Z"/><path stroke="#FFA1FF" stroke-width="3" d="M15.3233 43.898H10.2455C8.93876 43.898 7.87939 45.1277 7.87939 46.6447V65.2652C7.87939 66.7822 8.93876 68.012 10.2455 68.012H15.3233C16.6301 68.012 17.6895 66.7822 17.6895 65.2652V46.6447C17.6895 45.1277 16.6301 43.898 15.3233 43.898Z"/></svg>