<svg xmlns="http://www.w3.org/2000/svg" width="77" height="76" fill="none" viewBox="0 0 77 76"><mask id="path-1-inside-1_78_583" fill="#fff"><path d="M3.88228 1.57371C3.16073 1.57371 2.57371 2.16072 2.57371 2.88227V72.7776C2.57371 73.4991 3.16073 74.0861 3.88228 74.0861H73.7776C74.4991 74.0861 75.0861 73.4991 75.0861 72.7776V2.88227C75.0861 2.16072 74.4991 1.57371 73.7776 1.57371H3.88228ZM3.88228 0H73.7776C75.3694 0 76.6598 1.29043 76.6598 2.88227V72.7776C76.6598 74.3694 75.3694 75.6599 73.7776 75.6599H3.88228C2.29044 75.6599 1 74.3694 1 72.7776V2.88227C1 1.29043 2.29044 0 3.88228 0Z"/></mask><path fill="#8251FF" d="M3.88228 1.57371C3.16073 1.57371 2.57371 2.16072 2.57371 2.88227V72.7776C2.57371 73.4991 3.16073 74.0861 3.88228 74.0861H73.7776C74.4991 74.0861 75.0861 73.4991 75.0861 72.7776V2.88227C75.0861 2.16072 74.4991 1.57371 73.7776 1.57371H3.88228ZM3.88228 0H73.7776C75.3694 0 76.6598 1.29043 76.6598 2.88227V72.7776C76.6598 74.3694 75.3694 75.6599 73.7776 75.6599H3.88228C2.29044 75.6599 1 74.3694 1 72.7776V2.88227C1 1.29043 2.29044 0 3.88228 0Z"/><path fill="#8251FF" d="M3.88228 -1.42629C1.50392 -1.42629 -0.426291 0.503832 -0.426291 2.88227H5.57371C5.57371 3.81761 4.81755 4.57371 3.88228 4.57371V-1.42629ZM-0.426291 2.88227V72.7776H5.57371V2.88227H-0.426291ZM-0.426291 72.7776C-0.426291 75.156 1.50388 77.0861 3.88228 77.0861V71.0861C4.81759 71.0861 5.57371 71.8423 5.57371 72.7776H-0.426291ZM3.88228 77.0861H73.7776V71.0861H3.88228V77.0861ZM73.7776 77.0861C76.156 77.0861 78.0861 75.1559 78.0861 72.7776H72.0861C72.0861 71.8423 72.8422 71.0861 73.7776 71.0861V77.0861ZM78.0861 72.7776V2.88227H72.0861V72.7776H78.0861ZM78.0861 2.88227C78.0861 0.503868 76.156 -1.42629 73.7776 -1.42629V4.57371C72.8422 4.57371 72.0861 3.81758 72.0861 2.88227H78.0861ZM73.7776 -1.42629H3.88228V4.57371H73.7776V-1.42629ZM3.88228 3H73.7776V-3H3.88228V3ZM73.7776 3C73.7125 3 73.6598 2.94729 73.6598 2.88227H79.6598C79.6598 -0.366433 77.0262 -3 73.7776 -3V3ZM73.6598 2.88227V72.7776H79.6598V2.88227H73.6598ZM73.6598 72.7776C73.6598 72.7126 73.7125 72.6599 73.7776 72.6599V78.6599C77.0262 78.6599 79.6598 76.0263 79.6598 72.7776H73.6598ZM73.7776 72.6599H3.88228V78.6599H73.7776V72.6599ZM3.88228 72.6599C3.9473 72.6599 4 72.7126 4 72.7776H-2C-2 76.0263 0.633587 78.6599 3.88228 78.6599V72.6599ZM4 72.7776V2.88227H-2V72.7776H4ZM4 2.88227C4 2.9473 3.94728 3 3.88228 3V-3C0.633603 -3 -2 -0.366442 -2 2.88227H4Z" mask="url(#path-1-inside-1_78_583)"/><path stroke="#0D0C0C" stroke-width="2" d="M1.7207 55.8439V44.3149"/><path fill="#8251FF" d="M1.78607 45.0356C2.2202 45.0356 2.57214 44.7129 2.57214 44.3149C2.57214 43.9168 2.2202 43.5941 1.78607 43.5941C1.35193 43.5941 1 43.9168 1 44.3149C1 44.7129 1.35193 45.0356 1.78607 45.0356Z"/><path fill="#8251FF" d="M1.78607 56.5654C2.2202 56.5654 2.57214 56.2427 2.57214 55.8447C2.57214 55.4466 2.2202 55.1239 1.78607 55.1239C1.35193 55.1239 1 55.4466 1 55.8447C1 56.2427 1.35193 56.5654 1.78607 56.5654Z"/><path stroke="#8251FF" stroke-width="2" d="M17.7453 21.9431H12.7299C11.7521 21.9431 10.9595 22.7357 10.9595 23.7135V28.7289C10.9595 29.7067 11.7521 30.4993 12.7299 30.4993H17.7453C18.7231 30.4993 19.5157 29.7067 19.5157 28.7289V23.7135C19.5157 22.7357 18.7231 21.9431 17.7453 21.9431Z"/><path stroke="#8251FF" stroke-width="2" d="M28.9796 21.9431H24.7133C23.7355 21.9431 22.9429 22.7357 22.9429 23.7135V28.7289C22.9429 29.7067 23.7355 30.4993 24.7133 30.4993H28.9796C29.9574 30.4993 30.75 29.7067 30.75 28.7289V23.7135C30.75 22.7357 29.9574 21.9431 28.9796 21.9431Z"/><path stroke="#8251FF" stroke-width="2" d="M28.9796 9.95917H24.7133C23.7355 9.95917 22.9429 10.7518 22.9429 11.7296V16.745C22.9429 17.7228 23.7355 18.5154 24.7133 18.5154H28.9796C29.9574 18.5154 30.75 17.7228 30.75 16.745V11.7296C30.75 10.7518 29.9574 9.95917 28.9796 9.95917Z"/><path stroke="#8251FF" stroke-width="2" d="M28.9796 33.1778H24.7133C23.7355 33.1778 22.9429 33.9704 22.9429 34.9482V39.9636C22.9429 40.9414 23.7355 41.7341 24.7133 41.7341H28.9796C29.9574 41.7341 30.75 40.9414 30.75 39.9636V34.9482C30.75 33.9704 29.9574 33.1778 28.9796 33.1778Z"/><path stroke="#8251FF" stroke-width="2" d="M28.9796 45.9099H24.7133C23.7355 45.9099 22.9429 46.7025 22.9429 47.6803V51.9466C22.9429 52.9244 23.7355 53.717 24.7133 53.717H28.9796C29.9574 53.717 30.75 52.9244 30.75 51.9466V47.6803C30.75 46.7025 29.9574 45.9099 28.9796 45.9099Z"/><path stroke="#8251FF" stroke-width="2" d="M28.9796 57.1445H24.7133C23.7355 57.1445 22.9429 57.9372 22.9429 58.915V63.9304C22.9429 64.9081 23.7355 65.7008 24.7133 65.7008H28.9796C29.9574 65.7008 30.75 64.9081 30.75 63.9304V58.915C30.75 57.9372 29.9574 57.1445 28.9796 57.1445Z"/><path stroke="#8251FF" stroke-width="2" d="M40.9626 33.1777H35.9472C34.9694 33.1777 34.1768 33.9704 34.1768 34.9482V39.9636C34.1768 40.9413 34.9694 41.734 35.9472 41.734H40.9626C41.9404 41.734 42.733 40.9413 42.733 39.9636V34.9482C42.733 33.9704 41.9404 33.1777 40.9626 33.1777Z"/><path stroke="#8251FF" stroke-width="2" d="M52.9464 33.1778H48.6801C47.7023 33.1778 46.9097 33.9704 46.9097 34.9482V39.9636C46.9097 40.9414 47.7023 41.7341 48.6801 41.7341H52.9464C53.9242 41.7341 54.7168 40.9414 54.7168 39.9636V34.9482C54.7168 33.9704 53.9242 33.1778 52.9464 33.1778Z"/><path stroke="#8251FF" stroke-width="2" d="M64.9309 33.1778H59.9154C58.9377 33.1778 58.145 33.9704 58.145 34.9482V39.9636C58.145 40.9414 58.9377 41.7341 59.9154 41.7341H64.9309C65.9086 41.7341 66.7013 40.9414 66.7013 39.9636V34.9482C66.7013 33.9704 65.9086 33.1778 64.9309 33.1778Z"/><path stroke="#8251FF" stroke-width="2" d="M52.9464 45.9099H48.6801C47.7023 45.9099 46.9097 46.7025 46.9097 47.6803V51.9466C46.9097 52.9244 47.7023 53.717 48.6801 53.717H52.9464C53.9242 53.717 54.7168 52.9244 54.7168 51.9466V47.6803C54.7168 46.7025 53.9242 45.9099 52.9464 45.9099Z"/><path stroke="#8251FF" stroke-width="2" d="M52.9464 57.1445H48.6801C47.7023 57.1445 46.9097 57.9372 46.9097 58.915V63.9304C46.9097 64.9081 47.7023 65.7008 48.6801 65.7008H52.9464C53.9242 65.7008 54.7168 64.9081 54.7168 63.9304V58.915C54.7168 57.9372 53.9242 57.1445 52.9464 57.1445Z"/></svg>