<svg xmlns="http://www.w3.org/2000/svg" width="74" height="76" fill="none" viewBox="0 0 74 76"><path stroke="#FF2684" stroke-width="2" d="M36.779 72.5075C55.3505 72.5075 70.4057 57.2171 70.4057 38.3554C70.4057 19.4937 55.3505 4.20334 36.779 4.20334C18.2075 4.20334 3.15234 19.4937 3.15234 38.3554C3.15234 57.2171 18.2075 72.5075 36.779 72.5075Z"/><path fill="#FF2684" d="M68.8293 9.4575C71.441 9.4575 73.5581 7.34037 73.5581 4.72875C73.5581 2.11713 71.441 0 68.8293 0C66.2177 0 64.1006 2.11713 64.1006 4.72875C64.1006 7.34037 66.2177 9.4575 68.8293 9.4575Z"/><path fill="#FF2684" d="M61.9991 4.20332C62.5794 4.20332 63.0499 3.73285 63.0499 3.15249C63.0499 2.57213 62.5794 2.10165 61.9991 2.10165C61.4187 2.10165 60.9482 2.57213 60.9482 3.15249C60.9482 3.73285 61.4187 4.20332 61.9991 4.20332Z"/><path fill="#FF2684" d="M71.4566 15.7625C72.6174 15.7625 73.5583 14.8216 73.5583 13.6608C73.5583 12.5001 72.6174 11.5592 71.4566 11.5592C70.2959 11.5592 69.355 12.5001 69.355 13.6608C69.355 14.8216 70.2959 15.7625 71.4566 15.7625Z"/><path fill="#FF2684" d="M4.20333 53.5925C6.52477 53.5925 8.40667 51.7106 8.40667 49.3892C8.40667 47.0677 6.52477 45.1858 4.20333 45.1858C1.8819 45.1858 0 47.0677 0 49.3892C0 51.7106 1.8819 53.5925 4.20333 53.5925Z"/><path fill="#FF2684" d="M12.61 75.66C13.7707 75.66 14.7116 74.4838 14.7116 73.0329C14.7116 71.582 13.7707 70.4058 12.61 70.4058C11.4492 70.4058 10.5083 71.582 10.5083 73.0329C10.5083 74.4838 11.4492 75.66 12.61 75.66Z"/><path fill="#FF2684" d="M66.7281 65.1517C67.5986 65.1517 68.3044 64.2107 68.3044 63.05C68.3044 61.8893 67.5986 60.9483 66.7281 60.9483C65.8576 60.9483 65.1519 61.8893 65.1519 63.05C65.1519 64.2107 65.8576 65.1517 66.7281 65.1517Z"/><path stroke="#FF2684" stroke-linecap="round" stroke-linejoin="round" stroke-width="2" d="M26.4813 33.8011H46.3725C47.9414 33.8011 49.2098 35.536 49.2098 37.6776V51.2449C49.2098 53.3855 47.9383 55.1215 46.3725 55.1215H26.4813C24.9124 55.1215 23.644 53.3865 23.644 51.2449V37.6776C23.644 35.5371 24.9156 33.8011 26.4813 33.8011Z"/><path stroke="#FF2684" stroke-linecap="round" stroke-linejoin="round" stroke-width="2" d="M29.3262 33.8011V28.1192C29.3262 26.2355 30.0745 24.429 31.4065 23.097C32.7385 21.765 34.545 21.0167 36.4288 21.0167C38.3125 21.0167 40.119 21.765 41.451 23.097C42.783 24.429 43.5313 26.2355 43.5313 28.1192V33.8011"/></svg>