<svg xmlns="http://www.w3.org/2000/svg" width="35" height="50" fill="none" viewBox="0 0 35 50"><path stroke="#CC005C" stroke-linecap="round" stroke-linejoin="round" stroke-width="2" d="M1.42185 48.6677C1.42185 48.6677 7.84532 42.3487 16.0126 41.7272L9.14547 26.9615L16.0126 41.7272C16.4386 41.6944 16.8692 41.6771 17.3042 41.6754C26.0758 41.6754 33.1865 48.6677 33.1865 48.6677H1.42185ZM9.14547 26.9589L2.0165 11.6276C2.0165 11.6276 2.94919 9.69929 7.53005 7.7461C12.1109 5.79292 16.3536 7.04634 20.935 5.09367C25.5164 3.141 26.449 1.2132 26.449 1.2132L30.2806 9.45223L33.5783 16.5429C33.5783 16.5429 32.6451 18.4713 28.0642 20.4244C23.4833 22.3776 19.2404 21.1231 14.6601 23.0763C10.0798 25.0295 9.14547 26.9594 9.14547 26.9594V26.9589Z"/></svg>