<svg xmlns="http://www.w3.org/2000/svg" xmlns:xlink="http://www.w3.org/1999/xlink" width="390" height="390" viewBox="0 0 390 390">
  <defs>
    <clipPath id="clip-ctf_lr">
      <rect width="390" height="390"/>
    </clipPath>
  </defs>
  <g id="ctf_lr" data-name="ctf lr" clip-path="url(#clip-ctf_lr)">
    <path id="Union_1" data-name="Union 1" d="M-4796.65,1005.592s11.873-12.2,26.969-13.4l-12.693-28.508,12.693,28.508q1.181-.095,2.387-.1c16.213,0,29.356,13.5,29.356,13.5Zm14.276-41.913-13.177-29.6s1.724-3.723,10.191-7.494,16.309-1.351,24.777-5.121,10.192-7.492,10.192-7.492l7.082,15.907,6.095,13.69s-1.725,3.723-10.192,7.494-16.309,1.349-24.775,5.12S-4782.374,963.68-4782.374,963.68Z" transform="translate(4961.932 -764.897)" fill="none" stroke="#cc005c" stroke-linecap="round" stroke-linejoin="round" stroke-width="2"/>
    <g id="Group_183" data-name="Group 183" transform="translate(25.821 25.608)">
      <g id="Ellipse_111" data-name="Ellipse 111" transform="translate(50 50.213)" fill="none" stroke="#fff" stroke-width="1" opacity="0.5">
        <circle cx="119.179" cy="119.179" r="119.179" stroke="none"/>
        <circle cx="119.179" cy="119.179" r="118.679" fill="none"/>
      </g>
      <g id="Rectangle_316" data-name="Rectangle 316" transform="translate(65.65 65.863)" fill="none" stroke="#fff" stroke-width="1" opacity="0.5">
        <rect width="207.058" height="207.058" stroke="none"/>
        <rect x="0.5" y="0.5" width="206.058" height="206.058" fill="none"/>
      </g>
      <line id="Line_96" data-name="Line 96" y2="116.417" transform="translate(65.987 111.081)" fill="none" stroke="#fff" stroke-width="1"/>
      <line id="Line_97" data-name="Line 97" y2="116.417" transform="translate(272.585 111.081)" fill="none" stroke="#fff" stroke-width="1"/>
      <line id="Line_98" data-name="Line 98" x2="118.813" transform="translate(109.772 66.409)" fill="none" stroke="#fff" stroke-width="1"/>
      <line id="Line_99" data-name="Line 99" x2="118.813" transform="translate(109.772 272.399)" fill="none" stroke="#fff" stroke-width="1"/>
    </g>
  </g>
</svg>
