<svg xmlns="http://www.w3.org/2000/svg" width="71" height="76" fill="none" viewBox="0 0 71 76"><mask id="path-1-inside-1_78_511" fill="#fff"><path fill-rule="evenodd" d="M8.62907 58.4022H24.021C28.7867 58.4022 32.6501 62.2655 32.6501 67.0311C32.6501 67.1091 32.6491 67.1868 32.647 67.2642H32.6501V75.66L24.021 75.66H8.62907H0L0 67.2642H0.00308851C0.00103382 67.1868 0 67.1091 0 67.0311C0 62.2655 3.86337 58.4022 8.62907 58.4022Z" clip-rule="evenodd"/></mask><path fill="#BC7CBC" d="M32.647 67.2642L30.6477 67.2112L30.5932 69.2642H32.647V67.2642ZM32.6501 67.2642H34.6501V65.2642H32.6501V67.2642ZM32.6501 75.66V77.66H34.6501V75.66H32.6501ZM24.021 75.66V73.66V75.66ZM0 75.66H-2V77.66H0L0 75.66ZM0 67.2642L0 65.2642H-2V67.2642H0ZM0.00308851 67.2642L0.00308851 69.2642H2.05684L2.00239 67.2112L0.00308851 67.2642ZM24.021 56.4022H8.62907V60.4022H24.021V56.4022ZM34.6501 67.0311C34.6501 61.1609 29.8913 56.4022 24.021 56.4022V60.4022C27.6822 60.4022 30.6501 63.3701 30.6501 67.0311H34.6501ZM34.6463 67.3173C34.6488 67.2222 34.6501 67.1267 34.6501 67.0311H30.6501C30.6501 67.0914 30.6493 67.1514 30.6477 67.2112L34.6463 67.3173ZM32.6501 65.2642H32.647V69.2642H32.6501V65.2642ZM34.6501 75.66V67.2642H30.6501V75.66H34.6501ZM24.021 77.66L32.6501 77.66V73.66L24.021 73.66V77.66ZM8.62907 77.66H24.021V73.66H8.62907V77.66ZM0 77.66H8.62907V73.66H0L0 77.66ZM-2 67.2642L-2 75.66H2L2 67.2642H-2ZM0.00308851 65.2642H0L0 69.2642H0.00308851L0.00308851 65.2642ZM-2 67.0311C-2 67.1267 -1.99873 67.2221 -1.99621 67.3173L2.00239 67.2112C2.0008 67.1514 2 67.0914 2 67.0311H-2ZM8.62907 56.4022C2.75884 56.4022 -2 61.1609 -2 67.0311H2C2 63.3701 4.9679 60.4022 8.62907 60.4022V56.4022Z" mask="url(#path-1-inside-1_78_511)"/><path stroke="#BC7CBC" stroke-width="2" d="M23.2541 47.6743C23.2541 51.4743 20.0748 54.6038 16.0916 54.6038C12.1084 54.6038 8.9292 51.4743 8.9292 47.6743C8.9292 43.8743 12.1084 40.7448 16.0916 40.7448C20.0748 40.7448 23.2541 43.8743 23.2541 47.6743Z"/><mask id="path-4-inside-2_78_511" fill="#fff"><path fill-rule="evenodd" d="M46.4103 58.4022H61.8023C66.568 58.4022 70.4314 62.2655 70.4314 67.0311C70.4314 67.1091 70.4303 67.1868 70.4283 67.2643H70.4317V75.66L37.7816 75.66L37.7816 67.2643H37.7843C37.7823 67.1868 37.7812 67.1091 37.7812 67.0311C37.7812 62.2655 41.6446 58.4022 46.4103 58.4022Z" clip-rule="evenodd"/></mask><path fill="#BC7CBC" d="M70.4283 67.2643L68.429 67.2112L68.3745 69.2643H70.4283V67.2643ZM70.4317 67.2643H72.4317V65.2643H70.4317V67.2643ZM70.4317 75.66V77.66H72.4317V75.66H70.4317ZM37.7816 75.66H35.7816V77.66H37.7816L37.7816 75.66ZM37.7816 67.2643V65.2643H35.7816V67.2643H37.7816ZM37.7843 67.2643V69.2643H39.8381L39.7836 67.2112L37.7843 67.2643ZM61.8023 56.4022H46.4103V60.4022H61.8023V56.4022ZM72.4314 67.0311C72.4314 61.1609 67.6725 56.4022 61.8023 56.4022V60.4022C65.4635 60.4022 68.4314 63.3701 68.4314 67.0311H72.4314ZM72.4276 67.3173C72.4301 67.2222 72.4314 67.1268 72.4314 67.0311H68.4314C68.4314 67.0914 68.4306 67.1514 68.429 67.2112L72.4276 67.3173ZM70.4317 65.2643H70.4283V69.2643H70.4317V65.2643ZM72.4317 75.66V67.2643H68.4317V75.66H72.4317ZM37.7816 77.66L70.4317 77.66V73.66L37.7816 73.66L37.7816 77.66ZM35.7816 67.2643L35.7816 75.66H39.7816V67.2643H35.7816ZM37.7843 65.2643H37.7816V69.2643H37.7843V65.2643ZM35.7813 67.0311C35.7813 67.1268 35.7825 67.2222 35.785 67.3173L39.7836 67.2112C39.782 67.1514 39.7812 67.0914 39.7812 67.0311H35.7813ZM46.4103 56.4022C40.5401 56.4022 35.7813 61.1609 35.7813 67.0311H39.7812C39.7812 63.3701 42.7491 60.4022 46.4103 60.4022V56.4022Z" mask="url(#path-4-inside-2_78_511)"/><path fill="#0D0C0C" stroke="#BC7CBC" stroke-width="2" d="M61.0357 47.6743C61.0357 51.5013 57.9333 54.6038 54.1062 54.6038C50.2792 54.6038 47.1768 51.5013 47.1768 47.6743C47.1768 43.8472 50.2792 40.7448 54.1062 40.7448C57.9333 40.7448 61.0357 43.8472 61.0357 47.6743Z"/><path fill="#0D0C0C" d="M17.5554 35.2167L17.5554 31.1766L17.5554 30.4463L16.8252 30.4463C15.4026 30.4463 14.0652 29.8923 13.0594 28.8864C12.0535 27.8806 11.4995 26.5432 11.4995 25.1206L11.4995 10.093C11.4995 8.67051 12.0535 7.33312 13.0594 6.32724C14.0652 5.32136 15.4026 4.7674 16.8252 4.7674L42.6188 4.7674C44.0413 4.7674 45.3787 5.32136 46.3846 6.32724C47.3905 7.33312 47.9445 8.67051 47.9445 10.093L47.9445 25.1206C47.9445 26.5432 47.3905 27.8806 46.3846 28.8864C45.3787 29.8923 44.0413 30.4463 42.6188 30.4463L24.4894 30.4463L24.256 30.4463L24.0659 30.5817L17.5554 35.2167Z"/><path fill="#BC7CBC" d="M16.8249 5.49768C15.5975 5.49768 14.4435 5.97568 13.5755 6.84364C12.7076 7.71159 12.2296 8.8656 12.2296 10.0931L12.2296 25.1207C12.2296 26.3482 12.7076 27.5022 13.5755 28.3701C14.4435 29.2381 15.5975 29.7161 16.8249 29.7161L18.2855 29.7161L18.2855 33.8004L24.0224 29.7161L42.6186 29.7161C43.8461 29.7161 45.0001 29.2381 45.868 28.3701C46.736 27.5022 47.214 26.3482 47.214 25.1207L47.214 10.0931C47.214 8.8656 46.736 7.71159 45.868 6.84364C45.0001 5.97568 43.8461 5.49768 42.6186 5.49768L16.8249 5.49768ZM16.8249 4.03717L42.6186 4.03717C45.9632 4.03717 48.6745 6.74849 48.6745 10.0931L48.6745 25.1207C48.6745 28.4653 45.9632 31.1766 42.6186 31.1766L24.4892 31.1766L16.8249 36.633L16.8249 31.1766C13.4804 31.1766 10.769 28.4653 10.769 25.1207L10.769 10.0931C10.769 6.74849 13.4804 4.03717 16.8249 4.03717Z"/><path fill="#0D0C0C" d="M58.2621 31.1795L51.7516 26.5445L51.5615 26.4091L51.3281 26.4091L33.1987 26.4091C31.7762 26.4091 30.4388 25.8552 29.4329 24.8493C28.427 23.8434 27.873 22.506 27.873 21.0835L27.873 6.05587C27.873 4.63334 28.427 3.29595 29.4329 2.29007C30.4388 1.28419 31.7762 0.730225 33.1987 0.730225L58.9924 0.730225C60.4149 0.730225 61.7523 1.28419 62.7582 2.29007C63.764 3.29595 64.318 4.63334 64.318 6.05587L64.318 21.0835C64.318 22.506 63.764 23.8434 62.7581 24.8493C61.7523 25.8552 60.4149 26.4091 58.9924 26.4091L58.2621 26.4091L58.2621 27.1394L58.2621 31.1795Z"/><path fill="#BC7CBC" d="M33.1985 1.46051C31.971 1.46051 30.817 1.93851 29.9491 2.80647C29.0811 3.67442 28.6031 4.82843 28.6031 6.05591L28.6031 21.0835C28.6031 22.311 29.0811 23.465 29.9491 24.3329C30.817 25.2009 31.971 25.6789 33.1985 25.6789L51.7947 25.6789L57.5316 29.7632L57.5316 25.6789L58.9921 25.6789C60.2196 25.6789 61.3736 25.2009 62.2416 24.3329C63.1095 23.465 63.5875 22.311 63.5875 21.0835L63.5875 6.05591C63.5875 4.82843 63.1095 3.67442 62.2416 2.80647C61.3736 1.93851 60.2196 1.46051 58.9921 1.46051L33.1985 1.46051ZM33.1985 3.56359e-08L58.9921 1.87418e-07C62.3367 2.07099e-07 65.048 2.71132 65.048 6.05591L65.048 21.0835C65.048 24.4281 62.3367 27.1394 58.9921 27.1394L58.9921 32.5958L51.3279 27.1394L33.1985 27.1394C29.8539 27.1394 27.1426 24.4281 27.1426 21.0835L27.1426 6.05591C27.1426 2.71132 29.8539 1.59547e-08 33.1985 3.56359e-08Z"/><path fill="#BC7CBC" d="M37.9547 16.1773C39.3177 16.1773 40.4226 15.0358 40.4226 13.6276C40.4226 12.2195 39.3177 11.0779 37.9547 11.0779C36.5917 11.0779 35.4868 12.2195 35.4868 13.6276C35.4868 15.0358 36.5917 16.1773 37.9547 16.1773Z"/><path fill="#BC7CBC" d="M44.3263 16.3251C45.6893 16.3251 46.7942 15.1836 46.7942 13.7755C46.7942 12.3673 45.6893 11.2258 44.3263 11.2258C42.9633 11.2258 41.8584 12.3673 41.8584 13.7755C41.8584 15.1836 42.9633 16.3251 44.3263 16.3251Z"/><path fill="#BC7CBC" d="M50.2136 16.3548C51.6652 16.3548 52.8418 15.1781 52.8418 13.7266C52.8418 12.2751 51.6652 11.0984 50.2136 11.0984C48.7621 11.0984 47.5854 12.2751 47.5854 13.7266C47.5854 15.1781 48.7621 16.3548 50.2136 16.3548Z"/></svg>