<svg xmlns="http://www.w3.org/2000/svg" width="149" height="145" fill="none" viewBox="0 0 149 145"><path fill="#B06BFF" d="M95.0005 92.349C93.8474 92.1675 90.9165 92.0336 88.6117 94.7041L69.0766 117.338C82.0888 117.193 101.269 112.686 105.568 108.324L100.258 96.9227L100.112 96.5144C98.9601 93.2998 96.1537 92.5305 95.0005 92.349ZM96.9142 82.5819C102.506 83.4622 107.566 87.0593 109.692 92.9955L115.483 105.429C122.522 125.077 56.7052 131.452 56.1436 124.366C55.8315 120.452 57.0818 116.115 60.2355 112.461L80.9421 88.4697C85.1982 83.5383 91.3224 81.7016 96.9142 82.5819Z"/><path fill="#B06BFF" d="M68.937 42.1709C66.0027 33.4833 77.8061 26.9357 84.1616 33.7255L99.4164 50.0216C100.285 50.9503 100.921 52.0557 101.277 53.2575C101.633 54.4592 101.7 55.7272 101.475 56.9694C101.249 58.2116 100.736 59.3968 99.9722 60.439C99.2086 61.4813 98.2139 62.3544 97.0601 62.995L88.8481 67.5503C87.6936 68.1907 86.4091 68.5823 85.0878 68.6966C83.7666 68.8108 82.4417 68.645 81.2096 68.2111C79.9774 67.7771 78.8689 67.086 77.9645 66.1878C77.0601 65.2897 76.3825 64.2071 75.9809 63.0188L68.937 42.1709Z"/><path fill="#B06BFF" d="M103.903 54.3855C93.4003 50.816 81.6347 56.2634 77.6241 66.5526C73.6134 76.8419 78.8765 88.0767 89.3794 91.6463C99.8824 95.2158 111.648 89.7684 115.659 79.4792C119.669 69.1899 114.406 57.9551 103.903 54.3855Z"/><path stroke="#7542B1" stroke-width="8" d="M102.937 56.8645C93.8315 53.77 83.6315 58.4925 80.1546 67.4127C76.6776 76.3328 81.2403 86.0727 90.3457 89.1672C99.4511 92.2618 109.651 87.5393 113.128 78.6191C116.605 69.699 112.042 59.9591 102.937 56.8645Z"/><path fill="#B06BFF" d="M99.2761 65.6504C95.052 64.2148 90.3201 66.4056 88.7071 70.5438C87.0941 74.6819 89.2108 79.2004 93.4349 80.636C97.659 82.0716 102.391 79.8807 104.004 75.7426C105.617 71.6044 103.5 67.086 99.2761 65.6504Z"/><path stroke="#7542B1" stroke-width="7" d="M98.4306 67.8195C95.4293 66.7995 92.0673 68.3561 90.9212 71.2963C89.7752 74.2365 91.2791 77.4469 94.2804 78.4669C97.2816 79.4869 100.644 77.9303 101.79 74.9901C102.936 72.0499 101.432 68.8395 98.4306 67.8195Z"/><path fill="#B06BFF" d="M35.6934 30.3155C35.6295 30.2121 35.596 30.0937 35.5962 29.9724C35.5964 29.8512 35.6303 29.7314 35.6944 29.6254C35.7586 29.5193 35.8507 29.4308 35.9613 29.3688C36.0719 29.3069 36.1971 29.2737 36.3241 29.2727L42.6199 29.2053L45.053 25.9786L42.6971 22.8031L36.3999 22.87C36.2723 22.871 36.1475 22.8396 36.0383 22.779C35.9291 22.7183 35.8394 22.6307 35.7784 22.525C35.7174 22.4193 35.6873 22.2994 35.6912 22.1776C35.6951 22.0558 35.7328 21.9364 35.8005 21.8316C36.6078 20.5589 37.7547 19.5098 39.1205 18.7949C40.4863 18.08 42.0204 17.7258 43.5612 17.7695C45.102 17.8132 46.5925 18.2532 47.8757 19.0432C49.159 19.8333 50.1874 20.944 50.8527 22.2586L68.9186 22.0656C69.4258 22.0541 69.9281 22.1388 70.3963 22.3148C70.8645 22.4909 71.2894 22.7547 71.6462 23.0912C72.003 23.4276 72.2846 23.8298 72.4748 24.2746C72.665 24.7194 72.7599 25.1978 72.7541 25.6821C72.7482 26.1664 72.6417 26.647 72.4408 27.0959C72.2398 27.5449 71.9484 27.9532 71.5834 28.2974C71.2184 28.6415 70.7871 28.9146 70.3145 29.1007C69.8419 29.2868 69.3374 29.3823 68.8303 29.3816L50.7804 29.5738C50.0805 30.9029 49.0227 32.0355 47.7182 32.8525C46.4138 33.6695 44.9109 34.1407 43.3674 34.2167C41.824 34.2927 40.2971 33.9706 38.9472 33.2842C37.5973 32.5979 36.4743 31.5727 35.6962 30.3164L35.6934 30.3155ZM69.8775 26.6831C70.0809 26.4891 70.2208 26.2431 70.2796 25.9763C70.3384 25.7096 70.3134 25.4339 70.2077 25.1843C70.102 24.9346 69.9205 24.7222 69.686 24.5739C69.4515 24.4255 69.1746 24.3479 68.8904 24.3509C68.6061 24.3539 68.3273 24.4373 68.0891 24.5906C67.8509 24.7439 67.664 24.9602 67.5522 25.2121C67.4404 25.464 67.4086 25.7403 67.4608 26.0059C67.513 26.2715 67.6469 26.5146 67.8456 26.7044C68.1119 26.9587 68.4756 27.0994 68.8566 27.0954C69.2376 27.0914 69.6048 26.9431 69.8775 26.6831V26.6831Z"/><path fill="#B06BFF" d="M75.4932 12.7341C68.0726 10.2121 59.7598 14.0609 56.9262 21.3306C54.0926 28.6002 57.8111 36.538 65.2317 39.06C72.6524 41.5819 80.9651 37.7332 83.7987 30.4635C86.6323 23.1939 82.9138 15.2561 75.4932 12.7341Z"/><path stroke="#7542B1" stroke-width="7" d="M74.6477 14.9033C68.4499 12.7969 61.507 16.0114 59.1404 22.0831C56.7737 28.1548 59.8794 34.7844 66.0772 36.8908C72.275 38.9972 79.2179 35.7827 81.5845 29.711C83.9512 23.6393 80.8455 17.0096 74.6477 14.9033Z"/><path fill="#B06BFF" d="M72.4142 20.6314C69.4458 19.6226 66.1206 21.1621 64.9871 24.0701C63.8536 26.9782 65.341 30.1534 68.3094 31.1622C71.2778 32.1711 74.6031 30.6315 75.7366 27.7235C76.8701 24.8155 75.3826 21.6403 72.4142 20.6314Z"/><path stroke="#7542B1" stroke-width="7" d="M71.5687 22.8005C69.8232 22.2073 67.8678 23.1126 67.2012 24.8227C66.5347 26.5327 67.4094 28.3999 69.1549 28.9931C70.9005 29.5863 72.8558 28.681 73.5224 26.971C74.1889 25.261 73.3142 23.3938 71.5687 22.8005Z"/></svg>