<svg width="72" height="51" viewBox="0 0 72 51" fill="none" xmlns="http://www.w3.org/2000/svg">
<path d="M1 10C1 7.23858 3.23858 5 6 5H66C68.7614 5 71 7.23858 71 10V44.662C71 47.4235 68.7614 49.662 66 49.662H6C3.23858 49.662 1 47.4235 1 44.662V10Z" stroke="#8816E1" stroke-width="2"/>
<circle cx="35.5" cy="27.5" r="12.5" stroke="#8816E1" stroke-width="2"/>
<circle cx="35.5" cy="27.5" r="8.5" stroke="#8816E1" stroke-width="2"/>
<path d="M49 3C49 1.89543 49.8954 1 51 1H61C62.1046 1 63 1.89543 63 3V5H49V3Z" stroke="#8816E1" stroke-width="2"/>
<path d="M40 3C40 1.89543 40.8954 1 42 1H43C44.1046 1 45 1.89543 45 3V5H40V3Z" stroke="#8816E1" stroke-width="2"/>
</svg>