<svg xmlns="http://www.w3.org/2000/svg" width="54" height="76" fill="none" viewBox="0 0 54 76"><path fill="#FFDC00" d="M26.9175 2.73378C23.8004 2.73378 20.7209 3.34365 17.7648 4.54646C14.885 5.71819 12.277 7.38594 10.0132 9.50342C7.73813 11.6314 5.94888 14.0861 4.69511 16.7993C3.39367 19.6158 2.73378 22.5856 2.73378 25.6262C2.73378 27.896 3.18526 30.0938 4.11403 32.3451C4.90493 34.2622 6.05186 36.2543 7.72346 38.6142L8.17772 39.2555C8.70891 39.8734 9.24999 40.3547 9.8528 40.891C10.9941 41.9062 12.2876 43.057 13.5285 45.1825C16.6512 50.5356 17.1878 53.8187 17.2992 56.5667C17.306 56.6734 17.3968 56.7393 17.4782 56.7393H36.375C36.481 56.7393 36.5515 56.6579 36.5559 56.5855C36.7065 54.0073 37.2642 50.3824 40.2647 45.1918L40.2706 45.1816C41.511 43.0569 42.8045 41.9062 43.9458 40.891C44.6452 40.2688 45.2615 39.7206 45.8756 38.9472L46.1115 38.6142C47.7831 36.2543 48.93 34.2622 49.7209 32.3451C50.6497 30.0938 51.1012 27.896 51.1012 25.6262C51.1012 22.5812 50.4413 19.6088 49.1397 16.7914C47.8863 14.0781 46.0972 11.6239 43.8223 9.49706C41.5591 7.38121 38.9512 5.71486 36.0712 4.54429C33.1153 3.34293 30.0355 2.73378 26.9175 2.73378ZM26.9175 0C41.0855 0 53.835 11.4581 53.835 25.6262C53.835 31.2643 51.4342 35.8294 48.3423 40.1943H48.3605C46.3781 42.9225 44.4684 43.4135 42.6315 46.56C40.1398 50.8704 39.4487 53.9441 39.285 56.745C39.194 58.2727 37.9209 59.4731 36.375 59.4731C34.1561 59.4731 19.497 59.4731 19.0969 59.4731H17.4782C15.9322 59.4731 14.6409 58.2545 14.5682 56.6904C14.4591 53.9623 13.8407 51.1432 11.1671 46.56C9.33018 43.4135 7.4205 42.9225 5.43807 40.1943H5.49263C2.40075 35.8294 0 31.2643 0 25.6262C0 11.4763 12.7494 0 26.9175 0Z"/><path fill="#FFDC00" d="M23.6444 75.66H30.1924C30.8673 75.6582 31.5141 75.3894 31.9913 74.9121C32.4686 74.4349 32.7374 73.7881 32.7392 73.1132C32.7374 72.4383 32.4686 71.7915 31.9913 71.3143C31.5141 70.837 30.8673 70.5681 30.1924 70.5664H23.6444C22.9695 70.5681 22.3227 70.837 21.8455 71.3143C21.3683 71.7915 21.0994 72.4383 21.0977 73.1132C21.0994 73.7881 21.3683 74.4349 21.8455 74.9121C22.3227 75.3894 22.9695 75.6582 23.6444 75.66Z"/><path fill="#FFDC00" d="M20.0063 67.6577H33.8282C34.5032 67.6559 35.1499 67.3871 35.6272 66.9098C36.1044 66.4326 36.3733 65.7858 36.375 65.1109C36.3733 64.436 36.1044 63.7892 35.6272 63.3119C35.1499 62.8347 34.5032 62.5658 33.8282 62.5641H20.0063C19.3313 62.5658 18.6846 62.8347 18.2073 63.3119C17.7301 63.7892 17.4612 64.436 17.4595 65.1109C17.4612 65.7858 17.7301 66.4326 18.2073 66.9098C18.6846 67.3871 19.3313 67.6559 20.0063 67.6577Z"/><path stroke="#FFDC00" stroke-linecap="round" stroke-width="2" d="M14.3052 31.165C14.3052 31.165 18.0614 33.3182 20.5218 39.8792C22.9822 46.4403 24.1468 57.4093 24.1468 57.4093"/><path stroke="#FFDC00" stroke-linecap="round" stroke-width="2" d="M40.5496 31.165C40.5496 31.165 36.7934 33.3182 34.333 39.8792C31.8726 46.4403 30.708 57.4093 30.708 57.4093"/></svg>