<svg width="719" height="719" viewBox="0 0 719 719" fill="none" xmlns="http://www.w3.org/2000/svg">
<path fill-rule="evenodd" clip-rule="evenodd" d="M38 15H681C693.703 15 704 25.2975 704 38V68.0001L15 68V38C15 25.2975 25.2975 15 38 15ZM0 83V68V38C0 17.0132 17.0132 0 38 0H681C701.987 0 719 17.0132 719 38V68.0001V83.0001V681C719 701.987 701.987 719 681 719H38C17.0132 719 0 701.987 0 681V83ZM704 83.0001V681C704 693.703 693.703 704 681 704H38C25.2975 704 15 693.703 15 681V83L704 83.0001ZM56 43C56 49.0751 51.0751 54 45 54C38.9249 54 34 49.0751 34 43C34 36.9249 38.9249 32 45 32C51.0751 32 56 36.9249 56 43ZM80 54C86.0751 54 91 49.0751 91 43C91 36.9249 86.0751 32 80 32C73.9249 32 69 36.9249 69 43C69 49.0751 73.9249 54 80 54ZM126 43C126 49.0751 121.075 54 115 54C108.925 54 104 49.0751 104 43C104 36.9249 108.925 32 115 32C121.075 32 126 36.9249 126 43ZM250.52 310.821C250.52 307.174 249.507 304.336 247.481 302.31L150.511 369.033C144.837 372.985 142 377.291 142 381.952C142 386.613 144.837 390.92 150.511 394.871L247.481 461.595C249.507 459.568 250.52 456.073 250.52 451.108C250.52 448.777 250.216 446.193 249.608 443.356C247.785 434.946 240.54 426.333 227.874 417.518L174.374 381.952L227.874 346.387C236.993 340.409 243.174 334.633 246.417 329.06C248.038 326.223 249.102 323.386 249.608 320.549C250.216 317.712 250.52 314.469 250.52 310.821ZM470.458 310.821C470.458 307.174 471.471 304.336 473.498 302.31L570.467 369.033C576.141 372.985 578.978 377.291 578.978 381.952C578.978 386.613 576.141 390.92 570.467 394.871L473.498 461.595C471.471 459.568 470.458 456.073 470.458 451.108C470.458 448.777 470.762 446.193 471.37 443.356C473.194 434.946 480.439 426.333 493.104 417.518L546.604 381.952L493.104 346.387C483.985 340.409 477.804 334.633 474.562 329.06C472.94 326.223 471.826 323.386 471.218 320.549C470.711 317.712 470.458 314.469 470.458 310.821ZM428.664 251.342C436.172 254.844 439.419 263.77 435.916 271.277L352.627 449.804C349.125 457.312 340.199 460.558 332.692 457.056C325.185 453.553 321.938 444.628 325.44 437.121L408.729 258.593C412.232 251.086 421.157 247.839 428.664 251.342ZM339.946 493.545C339.804 493.848 339.656 494.147 339.503 494.441L339.523 494.451C339.523 494.451 339.465 494.544 339.356 494.717C338.734 495.869 338.021 496.945 337.231 497.941C334.68 501.67 330.382 507.504 326.325 510.915C308.172 526.171 284.066 511.614 284.066 511.614C297.004 507.84 297.14 503.468 297.603 488.583C297.629 487.745 297.656 486.874 297.686 485.967C297.793 484.83 297.91 483.884 298.033 483.084C298.159 480.677 298.686 478.255 299.646 475.913L299.649 475.848L299.669 475.858C299.796 475.551 299.93 475.246 300.072 474.942C305.208 463.931 318.299 459.169 329.31 464.306C340.321 469.443 345.083 482.534 339.946 493.545Z" fill="#5156DE"/>
</svg>
