<svg width="698" height="452" viewBox="0 0 698 452" fill="none" xmlns="http://www.w3.org/2000/svg">
<path fill-rule="evenodd" clip-rule="evenodd" d="M230.273 147.927L467.073 147.927C467.148 147.927 467.176 147.94 467.19 147.947C467.215 147.959 467.254 147.984 467.295 148.029C467.335 148.075 467.358 148.118 467.369 148.146C467.375 148.162 467.386 148.193 467.386 148.277V303.734C467.386 303.817 467.375 303.848 467.369 303.864C467.358 303.892 467.335 303.936 467.295 303.981C467.275 304.002 467.257 304.019 467.24 304.032C467.22 304.047 467.203 304.057 467.19 304.064C467.176 304.07 467.148 304.083 467.073 304.083H230.273C230.198 304.083 230.17 304.07 230.156 304.064C230.13 304.052 230.092 304.026 230.051 303.981C230.01 303.936 229.987 303.892 229.977 303.864C229.971 303.848 229.959 303.817 229.959 303.734V148.277C229.959 148.193 229.971 148.162 229.977 148.146C229.987 148.118 230.01 148.075 230.051 148.029C230.092 147.984 230.13 147.959 230.156 147.947C230.17 147.94 230.198 147.927 230.273 147.927ZM213 148.277C213 137.63 220.733 129 230.273 129H467.073C476.612 129 484.345 137.63 484.345 148.277V188.701L519.597 168.348C530.953 161.792 545.148 169.988 545.148 183.1V270.793C545.148 283.906 530.953 292.102 519.597 285.545L484.345 265.193V303.734C484.345 314.38 476.612 323.01 467.073 323.01H230.273C220.733 323.01 213 314.38 213 303.734V148.277ZM484.345 243.338L526.221 267.515V186.379L484.345 210.556V243.338Z" fill="#FF007F"/>
<path fill-rule="evenodd" clip-rule="evenodd" d="M60.8702 15H20C19.8274 15 19.6569 15.0087 19.4888 15.0258C16.9675 15.2819 15 17.4112 15 20V74C15 76.7614 17.2386 79 20 79H60.8702C63.6316 79 65.8702 76.7614 65.8702 74V20C65.8702 17.2386 63.6316 15 60.8702 15ZM1.53972e-05 116V18H0.0987769C0.96863 9.23891 7.49216 2.14101 15.9693 0.406329C16.783 0.239818 17.6148 0.122723 18.4612 0.0583181C18.8995 0.0249722 19.3417 0.00575052 19.7874 0.00110731C19.8366 0.000593911 19.886 0.000258743 19.9353 0.000102423L20 0H60.8702H88.8257H129.696H156.791H197.661H225.617H266.487H293.582H334.452H362.408H403.278H430.373H471.243H498.339H539.209H567.164H608.035H635.13H676C678.416 0 680.732 0.428478 682.877 1.21359C690.535 4.01758 696 11.3706 696 20V28H697.397V426H696V432C696 443.046 687.046 452 676 452H635.13H608.035H567.164H539.209H498.339H471.244H430.373H403.278H362.408H334.452H293.582H266.487H225.617H197.661H156.791H129.696H88.8257H60.8702H20C10.6802 452 2.84931 445.625 0.62968 436.998C0.218638 435.401 2.6631e-05 433.726 2.6631e-05 432L0 416L1.53972e-05 116ZM686.372 91.104C686.721 90.892 687.062 90.6696 687.397 90.4373V92.279C687.063 91.8801 686.721 91.4883 686.372 91.104ZM686.372 360.896C686.721 360.512 687.063 360.12 687.397 359.721V361.563C687.062 361.33 686.721 361.108 686.372 360.896ZM630.13 378C630.13 375.239 632.368 373 635.13 373L659 373L676 373C678.761 373 681 375.239 681 378V432C681 434.761 678.761 437 676 437H635.13C632.368 437 630.13 434.761 630.13 432V378ZM608.035 373H567.164C564.403 373 562.164 375.239 562.164 378V432C562.164 434.761 564.403 437 567.164 437H608.035C610.796 437 613.035 434.761 613.035 432V378C613.035 375.239 610.796 373 608.035 373ZM498.339 373H539.209C541.97 373 544.209 375.239 544.209 378V432C544.209 434.761 541.97 437 539.209 437H498.339C495.577 437 493.339 434.761 493.339 432V378C493.339 375.239 495.577 373 498.339 373ZM471.243 373H430.373C427.612 373 425.373 375.239 425.373 378V432C425.373 434.761 427.612 437 430.373 437H471.244C474.005 437 476.244 434.761 476.244 432V378C476.244 375.239 474.005 373 471.243 373ZM379.408 373H403.278C406.04 373 408.278 375.239 408.278 378V432C408.278 434.761 406.04 437 403.278 437H362.408C359.647 437 357.408 434.761 357.408 432V378C357.408 375.239 359.647 373 362.408 373H379.408ZM334.452 373H321.754H293.582C290.821 373 288.582 375.239 288.582 378V432C288.582 434.761 290.821 437 293.582 437H334.452C337.214 437 339.452 434.761 339.452 432V378C339.452 375.239 337.214 373 334.452 373ZM225.617 373H266.487C269.248 373 271.487 375.239 271.487 378V432C271.487 434.761 269.248 437 266.487 437H225.617C222.855 437 220.617 434.761 220.617 432V378C220.617 375.239 222.855 373 225.617 373ZM197.661 373H156.791C154.03 373 151.791 375.239 151.791 378V432C151.791 434.761 154.03 437 156.791 437H197.661C200.423 437 202.661 434.761 202.661 432V378C202.661 375.239 200.423 373 197.661 373ZM88.8257 373H129.696C132.457 373 134.696 375.239 134.696 378V432C134.696 434.761 132.457 437 129.696 437H88.8257C86.0643 437 83.8257 434.761 83.8257 432V378C83.8257 375.239 86.0643 373 88.8257 373ZM60.8702 373H37H20C17.2386 373 15 375.239 15 378V432C15 434.761 17.2386 437 20 437H60.8702C63.6316 437 65.8702 434.761 65.8702 432V378C65.8702 375.239 63.6316 373 60.8702 373ZM630.13 20C630.13 17.2386 632.368 15 635.13 15H676C678.761 15 681 17.2386 681 20V74C681 76.7614 678.761 79 676 79H635.13C632.368 79 630.13 76.7614 630.13 74V20ZM608.035 15H567.164C564.403 15 562.164 17.2386 562.164 20V74C562.164 76.7614 564.403 79 567.164 79H608.035C610.796 79 613.035 76.7614 613.035 74V20C613.035 17.2386 610.796 15 608.035 15ZM498.339 15H539.209C541.97 15 544.209 17.2386 544.209 20V74C544.209 76.7614 541.97 79 539.209 79H498.339C495.577 79 493.339 76.7614 493.339 74V20C493.339 17.2386 495.577 15 498.339 15ZM471.243 15H430.373C427.612 15 425.373 17.2386 425.373 20V74C425.373 76.7614 427.612 79 430.373 79H471.244C474.005 79 476.244 76.7614 476.244 74V20C476.244 17.2386 474.005 15 471.243 15ZM362.408 15H403.278C406.04 15 408.278 17.2386 408.278 20V74C408.278 76.7614 406.04 79 403.278 79H362.408C359.647 79 357.408 76.7614 357.408 74V20C357.408 17.2386 359.647 15 362.408 15ZM334.452 15H293.582C290.821 15 288.582 17.2386 288.582 20V74C288.582 76.7614 290.821 79 293.582 79H334.452C337.214 79 339.452 76.7614 339.452 74V20C339.452 17.2386 337.214 15 334.452 15ZM225.617 15H266.487C269.248 15 271.487 17.2386 271.487 20V74C271.487 76.7614 269.248 79 266.487 79H225.617C222.855 79 220.617 76.7614 220.617 74V20C220.617 17.2386 222.855 15 225.617 15ZM197.661 15H156.791C154.03 15 151.791 17.2386 151.791 20V74C151.791 76.7614 154.03 79 156.791 79H197.661C200.423 79 202.661 76.7614 202.661 74V20C202.661 17.2386 200.423 15 197.661 15ZM88.8257 15H129.696C132.457 15 134.696 17.2386 134.696 20V74C134.696 76.7614 132.457 79 129.696 79H88.8257C86.0643 79 83.8257 76.7614 83.8257 74V20C83.8257 17.2386 86.0643 15 88.8257 15ZM20 116L20 336C20 345.389 27.6112 353 37 353H321.754C331.143 353 338.754 345.389 338.754 336V304H362.408V336C362.408 345.389 370.019 353 379.408 353L659 353C668.389 353 676 345.389 676 336V116C676 106.611 668.389 99 659 99L379.408 99C370.019 99 362.408 106.611 362.408 116V148H338.754V116C338.754 106.611 331.143 99 321.754 99L37 99C27.6112 99 20 106.611 20 116Z" fill="#FF007F"/>
</svg>
