<svg width="712" height="512" viewBox="0 0 712 512" fill="none" xmlns="http://www.w3.org/2000/svg">
<path fill-rule="evenodd" clip-rule="evenodd" d="M452.144 17.4633L447.792 0L435.262 12.9187L364.802 85.5624C363.906 85.5187 363.009 85.4787 362.111 85.4426L362.073 85.4384C361.587 85.3862 361.107 85.3696 360.633 85.3865C319.362 83.9163 276.846 90.3799 239.414 100.721L128.198 23.6613L109.331 10.5885L112.605 33.3074L135.713 193.653C106.75 230.653 90.1283 267.551 85.4345 300.684L14.1405 268.277C9.11266 265.992 3.18415 268.215 0.898783 273.243C-1.38659 278.271 0.836602 284.199 5.86442 286.485L84.0653 322.03C84.246 332.297 85.7009 342.071 88.4152 351.224C88.8067 352.544 89.2065 353.873 89.6158 355.208L13.0526 355.804C7.52988 355.847 3.0877 360.359 3.13068 365.882C3.17366 371.404 7.68552 375.846 13.2082 375.804L96.3835 375.156C105.078 398.134 117.747 422.109 139.15 443.521C167.882 472.266 211.411 495.482 279.622 506.663C280.643 507.105 281.485 507.454 282.125 507.711C282.205 507.743 282.281 507.774 282.354 507.803C282.447 507.84 282.535 507.875 282.617 507.908C282.815 507.986 282.984 508.051 283.121 508.104L283.26 508.157L283.36 508.195L283.41 508.214L283.499 508.247L283.53 508.259L283.542 508.263C283.545 508.264 283.547 508.265 283.888 507.341C353.399 517.968 443.141 510.065 515.929 486.84C552.648 475.123 585.73 459.297 609.834 439.412C627.504 424.836 640.828 407.639 646.701 387.972C660.012 390.009 674.919 389.609 691.072 384.398C696.329 382.703 699.215 377.067 697.52 371.811C695.824 366.555 690.189 363.668 684.932 365.364C672.353 369.422 660.676 369.842 649.952 368.235C649.985 367.289 650.003 366.337 650.003 365.381C650.003 348.308 647.679 333.735 643.728 321.316C668.13 315.223 690.887 302.785 708.962 282.541C712.64 278.421 712.282 272.1 708.163 268.422C704.043 264.743 697.721 265.101 694.043 269.221C678.283 286.872 658.031 297.683 635.807 302.645C626.87 286.267 614.693 275.002 602.206 267.393C590.261 260.114 578.394 256.389 569.561 254.472C567.342 253.99 565.301 253.619 563.481 253.334C561.22 222.833 554.457 199.55 541.315 179.201C527.127 157.231 506.077 139.613 477.872 119.978L477.648 119.822L452.144 17.4633ZM629.984 362.871C629.755 347.757 627.463 335.246 623.836 324.873C617.759 325.552 611.634 325.881 605.502 325.881C599.98 325.881 595.502 321.404 595.502 315.881C595.502 310.358 599.98 305.881 605.502 305.881C608.419 305.881 611.323 305.797 614.209 305.628C607.561 295.931 599.575 289.21 591.799 284.472C582.244 278.65 572.611 275.6 565.318 274.016C561.69 273.229 558.694 272.816 556.653 272.601C555.635 272.494 554.859 272.438 554.367 272.408C554.122 272.393 553.948 272.385 553.85 272.381C553.808 272.38 553.78 272.379 553.767 272.378L553.762 272.378L549.646 272.292C545.549 281.049 539.358 288.522 530.813 293.715C514.113 303.864 493.823 302.019 475.646 293.33C474.208 292.643 472.775 291.91 471.35 291.133C471.474 291.834 471.524 292.557 471.494 293.294C471.054 303.948 469.539 313.508 464.102 321.639C458.622 329.835 450.174 335.089 439.358 339.608C437.558 340.36 435.577 340.569 433.66 340.21C417.265 337.136 404.672 332.972 395.079 325.239C390.006 321.151 386.098 316.332 382.91 310.806L382.698 310.792C377.829 310.471 370.836 310.094 362.401 309.874C355.475 309.694 347.605 309.62 339.165 309.769C333.606 317.49 326.41 323.951 317.578 328.514C298.46 338.391 276.523 336.871 257.043 327.686C254.219 326.354 251.435 324.858 248.703 323.204C244.962 324.58 241.394 326.084 238.036 327.726C221.136 335.989 211.087 346.89 209.075 361.297C202.561 407.944 222.536 439.629 244.582 460.123C255.682 470.442 267.254 477.84 276.079 482.66C279.764 484.672 282.943 486.22 285.372 487.332C351.755 497.807 439.185 490.334 509.849 467.786C545.197 456.508 575.671 441.667 597.107 423.984C612.421 411.351 622.663 397.689 627.25 383.14C619.961 380.659 613.38 377.699 607.593 374.857C602.636 372.421 600.592 366.429 603.027 361.472C605.462 356.515 611.454 354.47 616.411 356.905C620.678 359.001 625.205 361.059 629.984 362.871ZM391.697 115.407C377.939 108.844 371.305 106.611 360.62 105.4C326.364 104.099 290.812 108.639 258.214 116.512L261.444 119.232C265.668 122.789 266.209 129.098 262.652 133.322C259.094 137.547 252.786 138.088 248.561 134.53L229.561 118.53C229.173 118.204 228.817 117.854 228.491 117.485L135.674 53.1735L156.123 195.063L156.741 199.349L154.039 202.731L153.87 202.943L153.805 203.023L153.805 203.023C122.661 241.876 107.416 278.717 104.565 309.379L113.14 313.277C118.168 315.563 120.391 321.491 118.106 326.519C115.821 331.547 109.892 333.77 104.864 331.485L104.727 331.422C105.309 336.374 106.27 341.088 107.59 345.538C108.525 348.692 109.502 351.863 110.533 355.046L121.797 354.958C127.319 354.915 131.831 359.357 131.874 364.88C131.917 370.402 127.475 374.914 121.952 374.957L117.83 374.989C125.683 393.911 136.522 412.601 153.295 429.382C170.822 446.917 195.288 462.812 230.611 474.442C205.332 450.798 181.648 413.096 189.267 358.531C192.556 334.975 209.158 319.582 229.251 309.758C229.687 309.545 230.125 309.335 230.565 309.126C221.965 300.776 214.4 290.658 208.434 279.111C196.869 256.726 193.164 232.549 196.942 211.358C200.723 190.156 212.176 171.385 231.294 161.507C250.413 151.63 272.349 153.15 291.829 162.335C311.299 171.515 328.874 188.526 340.439 210.91C352.004 233.295 355.708 257.472 351.93 278.663C350.99 283.936 349.575 289.058 347.686 293.931C348.318 292.541 348.91 291.126 349.46 289.691C354.242 289.701 358.755 289.772 362.922 289.881C367.36 289.997 371.417 290.154 375.003 290.326C375.012 288.565 375.487 286.818 376.406 285.272C377.88 282.793 380.352 281.07 383.188 280.547C410.99 275.419 428.653 275.829 457.146 281.719C445.865 272.849 435.5 261.172 427.105 247.357C414.272 226.24 407.993 203.34 408.657 183.096C409.317 162.96 417.025 144.101 433.725 133.952C441.509 129.222 450.073 127.097 458.839 127.056L437.088 39.762L386.955 91.4489C390.998 93.0329 395.313 94.9723 400.308 97.3554C405.293 99.7333 407.406 105.702 405.028 110.687C402.65 115.671 396.682 117.785 391.697 115.407ZM398.877 298.279C401.422 303.387 404.217 306.917 407.63 309.668C412.922 313.933 420.771 317.198 434.365 319.97C441.921 316.528 445.462 313.535 447.476 310.522C448.984 308.267 450.085 305.342 450.774 300.831C430.281 296.73 416.554 295.945 398.877 298.279ZM216.632 214.869C213.691 231.365 216.476 251.104 226.202 269.93C235.929 288.757 250.416 302.45 265.573 309.596C280.718 316.737 295.971 317.166 308.398 310.745C320.825 304.325 329.301 291.637 332.24 275.152C335.182 258.656 332.396 238.917 322.67 220.091C312.943 201.264 298.456 187.571 283.3 180.425C268.154 173.284 252.901 172.855 240.474 179.276C228.047 185.696 219.571 198.384 216.632 214.869ZM444.196 236.971C433.087 218.69 428.127 199.581 428.646 183.752C429.168 167.817 435.065 156.542 444.112 151.044C453.159 145.546 465.883 145.505 480.268 152.381C494.556 159.211 509.233 172.416 520.342 190.697C531.452 208.977 536.412 228.087 535.893 243.915C535.37 259.85 529.474 271.126 520.427 276.624C511.38 282.121 498.656 282.162 484.271 275.286C469.982 268.456 455.305 255.251 444.196 236.971ZM309.002 260.881C309.002 269.165 302.287 275.881 294.002 275.881C285.718 275.881 279.002 269.165 279.002 260.881C279.002 252.597 285.718 245.881 294.002 245.881C302.287 245.881 309.002 252.597 309.002 260.881ZM503.002 259.881C511.287 259.881 518.002 253.165 518.002 244.881C518.002 236.597 511.287 229.881 503.002 229.881C494.718 229.881 488.002 236.597 488.002 244.881C488.002 253.165 494.718 259.881 503.002 259.881ZM312.115 341.607C306.958 340.492 301.822 343.576 300.382 348.652L310.003 351.381C300.382 348.652 300.381 348.657 300.379 348.663L300.375 348.677L300.366 348.708L300.344 348.791C300.326 348.855 300.304 348.936 300.278 349.034C300.227 349.23 300.159 349.493 300.079 349.821C299.92 350.477 299.712 351.391 299.486 352.538C299.033 354.828 298.502 358.061 298.138 362.021C297.413 369.915 297.338 380.863 299.979 393.06C305.363 417.928 321.858 446.905 363.957 465.526C407.574 484.818 451.251 468.19 482.299 448.8C498.03 438.977 511.147 428.075 520.312 419.662C524.906 415.444 528.537 411.825 531.037 409.24C532.287 407.947 533.257 406.91 533.925 406.184C534.259 405.822 534.518 405.536 534.699 405.335C534.789 405.235 534.86 405.155 534.912 405.098L534.974 405.028L534.993 405.006L535.001 404.998C535.003 404.995 535.006 404.992 527.503 398.381L535.006 404.992C537.351 402.33 538.11 398.625 537.002 395.256C535.893 391.886 533.082 389.356 529.615 388.607L312.115 341.607ZM318.054 363.85C318.07 363.685 318.085 363.523 318.101 363.362L507.484 404.286C507.255 404.498 507.022 404.712 506.787 404.928C498.233 412.781 486.1 422.847 471.706 431.837C442.504 450.072 406.431 462.443 372.047 447.236C336.147 431.357 323.641 407.834 319.526 388.827C317.417 379.086 317.467 370.253 318.054 363.85Z" fill="#FF007F"/>
</svg>
