<svg width="629" height="382" viewBox="0 0 629 382" fill="none" xmlns="http://www.w3.org/2000/svg">
<mask id="path-1-outside-1_1_69" maskUnits="userSpaceOnUse" x="0" y="0" width="629" height="382" fill="black">
<rect fill="white" width="629" height="382"/>
<path fill-rule="evenodd" clip-rule="evenodd" d="M261.989 229H248.96L243.695 240.917L209.285 318.8C185.767 372.031 110.233 372.031 86.715 318.8L40.9988 215.327C39.9111 212.865 38.9878 210.4 38.2193 207.942L37.695 206.264L36.8863 204.704C28.0187 187.598 23 168.164 23 147.5C23 78.7405 78.7405 23 147.5 23C179.03 23 207.78 34.6946 229.723 54.012L235.39 59H242.939H386.061H393.61L399.277 54.012C421.22 34.6946 449.97 23 481.5 23C550.259 23 606 78.7405 606 147.5C606 166.56 601.731 184.566 594.115 200.665L593.281 202.429L592.803 204.321C591.879 207.979 590.622 211.657 589.001 215.327L543.285 318.8C519.767 372.031 444.233 372.031 420.715 318.8L386.305 240.917L381.04 229H368.011H261.989ZM22.7048 223.409C21.3133 220.26 20.1244 217.089 19.1302 213.909C8.82305 194.025 3 171.443 3 147.5C3 67.6949 67.6949 3 147.5 3C184.079 3 217.483 16.5916 242.939 39H386.061C411.517 16.5916 444.921 3 481.5 3C561.305 3 626 67.6949 626 147.5C626 169.579 621.048 190.501 612.195 209.217C610.995 213.969 609.37 218.713 607.295 223.409L561.579 326.883C531.04 396.003 432.96 396.003 402.421 326.882L368.011 249H261.989L227.579 326.883C197.04 396.003 98.9598 396.003 68.421 326.882L22.7048 223.409ZM478.5 119C489.822 119 499 109.822 499 98.5C499 87.1782 489.822 78 478.5 78C467.178 78 458 87.1782 458 98.5C458 109.822 467.178 119 478.5 119ZM499 200.5C499 211.822 489.822 221 478.5 221C467.178 221 458 211.822 458 200.5C458 189.178 467.178 180 478.5 180C489.822 180 499 189.178 499 200.5ZM529.5 170C540.822 170 550 160.822 550 149.5C550 138.178 540.822 129 529.5 129C518.178 129 509 138.178 509 149.5C509 160.822 518.178 170 529.5 170ZM448 149.5C448 160.822 438.822 170 427.5 170C416.178 170 407 160.822 407 149.5C407 138.178 416.178 129 427.5 129C438.822 129 448 138.178 448 149.5ZM89.4347 167.14C91.8838 169.436 94.7921 170.584 98.1596 170.584H138.34C139.565 170.584 140.177 171.273 140.177 172.65V211.913C140.177 215.433 141.478 218.495 144.08 221.097C146.682 223.699 149.744 225 153.264 225C156.785 225 159.846 223.699 162.449 221.097C165.051 218.495 166.352 215.433 166.352 211.913V172.65C166.352 171.273 166.964 170.584 168.189 170.584H208.369C211.737 170.584 214.568 169.436 216.864 167.14C219.314 164.691 220.538 161.783 220.538 158.415C220.538 155.048 219.314 152.216 216.864 149.92C214.568 147.471 211.737 146.246 208.369 146.246H168.189C166.964 146.246 166.352 145.557 166.352 144.18V104.918C166.352 101.397 165.051 98.3356 162.449 95.7334C159.846 93.1312 156.785 91.8301 153.264 91.8301C149.744 91.8301 146.682 93.1312 144.08 95.7334C141.478 98.3356 140.177 101.397 140.177 104.918V144.18C140.177 145.557 139.565 146.246 138.34 146.246H98.1596C94.7921 146.246 91.8838 147.471 89.4347 149.92C87.1386 152.216 85.9906 155.048 85.9906 158.415C85.9906 161.783 87.1386 164.691 89.4347 167.14Z"/>
</mask>
<path fill-rule="evenodd" clip-rule="evenodd" d="M261.989 229H248.96L243.695 240.917L209.285 318.8C185.767 372.031 110.233 372.031 86.715 318.8L40.9988 215.327C39.9111 212.865 38.9878 210.4 38.2193 207.942L37.695 206.264L36.8863 204.704C28.0187 187.598 23 168.164 23 147.5C23 78.7405 78.7405 23 147.5 23C179.03 23 207.78 34.6946 229.723 54.012L235.39 59H242.939H386.061H393.61L399.277 54.012C421.22 34.6946 449.97 23 481.5 23C550.259 23 606 78.7405 606 147.5C606 166.56 601.731 184.566 594.115 200.665L593.281 202.429L592.803 204.321C591.879 207.979 590.622 211.657 589.001 215.327L543.285 318.8C519.767 372.031 444.233 372.031 420.715 318.8L386.305 240.917L381.04 229H368.011H261.989ZM22.7048 223.409C21.3133 220.26 20.1244 217.089 19.1302 213.909C8.82305 194.025 3 171.443 3 147.5C3 67.6949 67.6949 3 147.5 3C184.079 3 217.483 16.5916 242.939 39H386.061C411.517 16.5916 444.921 3 481.5 3C561.305 3 626 67.6949 626 147.5C626 169.579 621.048 190.501 612.195 209.217C610.995 213.969 609.37 218.713 607.295 223.409L561.579 326.883C531.04 396.003 432.96 396.003 402.421 326.882L368.011 249H261.989L227.579 326.883C197.04 396.003 98.9598 396.003 68.421 326.882L22.7048 223.409ZM478.5 119C489.822 119 499 109.822 499 98.5C499 87.1782 489.822 78 478.5 78C467.178 78 458 87.1782 458 98.5C458 109.822 467.178 119 478.5 119ZM499 200.5C499 211.822 489.822 221 478.5 221C467.178 221 458 211.822 458 200.5C458 189.178 467.178 180 478.5 180C489.822 180 499 189.178 499 200.5ZM529.5 170C540.822 170 550 160.822 550 149.5C550 138.178 540.822 129 529.5 129C518.178 129 509 138.178 509 149.5C509 160.822 518.178 170 529.5 170ZM448 149.5C448 160.822 438.822 170 427.5 170C416.178 170 407 160.822 407 149.5C407 138.178 416.178 129 427.5 129C438.822 129 448 138.178 448 149.5ZM89.4347 167.14C91.8838 169.436 94.7921 170.584 98.1596 170.584H138.34C139.565 170.584 140.177 171.273 140.177 172.65V211.913C140.177 215.433 141.478 218.495 144.08 221.097C146.682 223.699 149.744 225 153.264 225C156.785 225 159.846 223.699 162.449 221.097C165.051 218.495 166.352 215.433 166.352 211.913V172.65C166.352 171.273 166.964 170.584 168.189 170.584H208.369C211.737 170.584 214.568 169.436 216.864 167.14C219.314 164.691 220.538 161.783 220.538 158.415C220.538 155.048 219.314 152.216 216.864 149.92C214.568 147.471 211.737 146.246 208.369 146.246H168.189C166.964 146.246 166.352 145.557 166.352 144.18V104.918C166.352 101.397 165.051 98.3356 162.449 95.7334C159.846 93.1312 156.785 91.8301 153.264 91.8301C149.744 91.8301 146.682 93.1312 144.08 95.7334C141.478 98.3356 140.177 101.397 140.177 104.918V144.18C140.177 145.557 139.565 146.246 138.34 146.246H98.1596C94.7921 146.246 91.8838 147.471 89.4347 149.92C87.1386 152.216 85.9906 155.048 85.9906 158.415C85.9906 161.783 87.1386 164.691 89.4347 167.14Z" fill="#4200FF"/>
<path d="M248.96 229V226H247.006L246.216 227.788L248.96 229ZM243.695 240.917L246.439 242.13L243.695 240.917ZM209.285 318.8L212.029 320.012L209.285 318.8ZM86.715 318.8L89.4591 317.587L86.715 318.8ZM40.9988 215.327L38.2547 216.539H38.2547L40.9988 215.327ZM38.2193 207.942L35.3559 208.837V208.837L38.2193 207.942ZM37.695 206.264L40.5584 205.369L40.4797 205.118L40.3584 204.884L37.695 206.264ZM36.8863 204.704L39.5498 203.324H39.5498L36.8863 204.704ZM229.723 54.012L231.706 51.7602L229.723 54.012ZM235.39 59L233.407 61.2518L234.257 62H235.39V59ZM393.61 59V62H394.743L395.593 61.2518L393.61 59ZM399.277 54.012L401.259 56.2638V56.2638L399.277 54.012ZM594.115 200.665L596.827 201.948L594.115 200.665ZM593.281 202.429L590.569 201.146L590.444 201.411L590.372 201.695L593.281 202.429ZM592.803 204.321L595.712 205.055L595.712 205.055L592.803 204.321ZM589.001 215.327L586.257 214.114V214.114L589.001 215.327ZM543.285 318.8L546.029 320.012L543.285 318.8ZM420.715 318.8L423.459 317.587L420.715 318.8ZM386.305 240.917L389.049 239.705L386.305 240.917ZM381.04 229L383.784 227.788L382.994 226H381.04V229ZM19.1302 213.909L21.9936 213.014L21.9149 212.762L21.7936 212.528L19.1302 213.909ZM22.7048 223.409L19.9607 224.622L22.7048 223.409ZM242.939 39L240.956 41.2518L241.806 42H242.939V39ZM386.061 39V42H387.194L388.044 41.2518L386.061 39ZM612.195 209.217L609.483 207.934L609.357 208.199L609.286 208.483L612.195 209.217ZM607.295 223.409L610.039 224.622L607.295 223.409ZM561.579 326.883L564.323 328.095L561.579 326.883ZM402.421 326.882L405.165 325.67L402.421 326.882ZM368.011 249L370.755 247.788L369.966 246H368.011V249ZM261.989 249V246H260.034L259.245 247.788L261.989 249ZM227.579 326.883L230.323 328.095L227.579 326.883ZM68.421 326.882L71.1651 325.67L68.421 326.882ZM89.4347 167.14L87.2461 169.192L87.3123 169.262L87.3829 169.329L89.4347 167.14ZM144.08 221.097L146.202 218.975H146.202L144.08 221.097ZM162.449 221.097L160.327 218.975H160.327L162.449 221.097ZM216.864 167.14L218.986 169.261L218.986 169.261L216.864 167.14ZM216.864 149.92L214.676 151.972L214.742 152.042L214.813 152.108L216.864 149.92ZM89.4347 149.92L91.556 152.041L89.4347 149.92ZM248.96 232H261.989V226H248.96V232ZM246.439 242.13L251.704 230.212L246.216 227.788L240.951 239.705L246.439 242.13ZM212.029 320.012L246.439 242.13L240.951 239.705L206.541 317.588L212.029 320.012ZM83.9709 320.012C108.542 375.627 187.458 375.627 212.029 320.012L206.541 317.588C184.076 368.435 111.924 368.435 89.4591 317.587L83.9709 320.012ZM38.2547 216.539L83.9709 320.012L89.4591 317.587L43.7429 214.114L38.2547 216.539ZM35.3559 208.837C36.1583 211.403 37.1214 213.974 38.2547 216.539L43.7429 214.114C42.7007 211.755 41.8173 209.397 41.0826 207.046L35.3559 208.837ZM34.8316 207.159L35.3559 208.837L41.0826 207.046L40.5584 205.369L34.8316 207.159ZM34.2229 206.085L35.0316 207.645L40.3584 204.884L39.5498 203.324L34.2229 206.085ZM20 147.5C20 168.656 25.1393 188.562 34.2229 206.085L39.5498 203.324C30.8981 186.634 26 167.673 26 147.5H20ZM147.5 20C77.0837 20 20 77.0837 20 147.5H26C26 80.3974 80.3974 26 147.5 26V20ZM231.706 51.7602C209.235 31.979 179.787 20 147.5 20V26C178.273 26 206.324 37.4102 227.741 56.2638L231.706 51.7602ZM237.372 56.7482L231.706 51.7602L227.741 56.2638L233.407 61.2518L237.372 56.7482ZM242.939 56H235.39V62H242.939V56ZM386.061 56H242.939V62H386.061V56ZM393.61 56H386.061V62H393.61V56ZM397.294 51.7602L391.628 56.7482L395.593 61.2518L401.259 56.2638L397.294 51.7602ZM481.5 20C449.213 20 419.765 31.979 397.294 51.7602L401.259 56.2638C422.676 37.4102 450.727 26 481.5 26V20ZM609 147.5C609 77.0837 551.916 20 481.5 20V26C548.603 26 603 80.3974 603 147.5H609ZM596.827 201.948C604.628 185.457 609 167.012 609 147.5H603C603 166.107 598.833 183.676 591.404 199.382L596.827 201.948ZM595.993 203.712L596.827 201.948L591.404 199.382L590.569 201.146L595.993 203.712ZM595.712 205.055L596.19 203.163L590.372 201.695L589.894 203.587L595.712 205.055ZM591.745 216.539C593.435 212.715 594.747 208.878 595.712 205.055L589.894 203.587C589.012 207.08 587.81 210.599 586.257 214.114L591.745 216.539ZM546.029 320.012L591.745 216.539L586.257 214.114L540.541 317.588L546.029 320.012ZM417.971 320.012C442.542 375.627 521.458 375.627 546.029 320.012L540.541 317.588C518.076 368.435 445.924 368.435 423.459 317.587L417.971 320.012ZM383.561 242.13L417.971 320.012L423.459 317.587L389.049 239.705L383.561 242.13ZM378.296 230.212L383.561 242.13L389.049 239.705L383.784 227.788L378.296 230.212ZM368.011 232H381.04V226H368.011V232ZM261.989 232H368.011V226H261.989V232ZM16.2668 214.804C17.2949 218.092 18.5237 221.369 19.9607 224.622L25.4489 222.197C24.103 219.151 22.9539 216.086 21.9936 213.014L16.2668 214.804ZM0 147.5C0 171.934 5.94371 194.989 16.4668 215.289L21.7936 212.528C11.7024 193.061 6 170.951 6 147.5H0ZM147.5 0C66.038 0 0 66.038 0 147.5H6C6 69.3517 69.3517 6 147.5 6V0ZM244.921 36.7482C218.939 13.8761 184.836 0 147.5 0V6C183.322 6 216.028 19.307 240.956 41.2518L244.921 36.7482ZM386.061 36H242.939V42H386.061V36ZM481.5 0C444.164 0 410.061 13.8761 384.079 36.7482L388.044 41.2518C412.972 19.307 445.678 6 481.5 6V0ZM629 147.5C629 66.038 562.962 0 481.5 0V6C559.648 6 623 69.3517 623 147.5H629ZM614.906 210.5C623.946 191.392 629 170.032 629 147.5H623C623 169.126 618.151 189.611 609.483 207.934L614.906 210.5ZM610.039 224.622C612.182 219.772 613.862 214.868 615.103 209.952L609.286 208.483C608.127 213.071 606.558 217.655 604.551 222.197L610.039 224.622ZM564.323 328.095L610.039 224.622L604.551 222.197L558.835 325.67L564.323 328.095ZM399.677 328.095C431.269 399.599 532.731 399.599 564.323 328.095L558.835 325.67C529.349 392.408 434.651 392.407 405.165 325.67L399.677 328.095ZM365.267 250.212L399.677 328.095L405.165 325.67L370.755 247.788L365.267 250.212ZM261.989 252H368.011V246H261.989V252ZM230.323 328.095L264.733 250.212L259.245 247.788L224.835 325.67L230.323 328.095ZM65.6769 328.095C97.2687 399.599 198.731 399.599 230.323 328.095L224.835 325.67C195.349 392.408 100.651 392.407 71.1651 325.67L65.6769 328.095ZM19.9607 224.622L65.6769 328.095L71.1651 325.67L25.4489 222.197L19.9607 224.622ZM496 98.5C496 108.165 488.165 116 478.5 116V122C491.479 122 502 111.479 502 98.5H496ZM478.5 81C488.165 81 496 88.835 496 98.5H502C502 85.5213 491.479 75 478.5 75V81ZM461 98.5C461 88.835 468.835 81 478.5 81V75C465.521 75 455 85.5213 455 98.5H461ZM478.5 116C468.835 116 461 108.165 461 98.5H455C455 111.479 465.521 122 478.5 122V116ZM478.5 224C491.479 224 502 213.479 502 200.5H496C496 210.165 488.165 218 478.5 218V224ZM455 200.5C455 213.479 465.521 224 478.5 224V218C468.835 218 461 210.165 461 200.5H455ZM478.5 177C465.521 177 455 187.521 455 200.5H461C461 190.835 468.835 183 478.5 183V177ZM502 200.5C502 187.521 491.479 177 478.5 177V183C488.165 183 496 190.835 496 200.5H502ZM547 149.5C547 159.165 539.165 167 529.5 167V173C542.479 173 553 162.479 553 149.5H547ZM529.5 132C539.165 132 547 139.835 547 149.5H553C553 136.521 542.479 126 529.5 126V132ZM512 149.5C512 139.835 519.835 132 529.5 132V126C516.521 126 506 136.521 506 149.5H512ZM529.5 167C519.835 167 512 159.165 512 149.5H506C506 162.479 516.521 173 529.5 173V167ZM427.5 173C440.479 173 451 162.479 451 149.5H445C445 159.165 437.165 167 427.5 167V173ZM404 149.5C404 162.479 414.521 173 427.5 173V167C417.835 167 410 159.165 410 149.5H404ZM427.5 126C414.521 126 404 136.521 404 149.5H410C410 139.835 417.835 132 427.5 132V126ZM451 149.5C451 136.521 440.479 126 427.5 126V132C437.165 132 445 139.835 445 149.5H451ZM98.1596 167.584C95.5516 167.584 93.3776 166.724 91.4865 164.951L87.3829 169.329C90.3899 172.148 94.0326 173.584 98.1596 173.584V167.584ZM138.34 167.584H98.1596V173.584H138.34V167.584ZM143.177 172.65C143.177 171.581 142.947 170.218 141.96 169.108C140.913 167.93 139.512 167.584 138.34 167.584V173.584C138.373 173.584 138.27 173.589 138.09 173.522C137.894 173.448 137.667 173.309 137.476 173.094C137.101 172.672 137.177 172.343 137.177 172.65H143.177ZM143.177 211.913V172.65H137.177V211.913H143.177ZM146.202 218.975C144.134 216.907 143.177 214.598 143.177 211.913H137.177C137.177 216.268 138.823 220.082 141.959 223.218L146.202 218.975ZM153.264 222C150.579 222 148.27 221.043 146.202 218.975L141.959 223.218C145.095 226.354 148.909 228 153.264 228V222ZM160.327 218.975C158.259 221.043 155.95 222 153.264 222V228C157.62 228 161.433 226.354 164.57 223.218L160.327 218.975ZM163.352 211.913C163.352 214.598 162.395 216.907 160.327 218.975L164.57 223.218C167.706 220.082 169.352 216.268 169.352 211.913H163.352ZM163.352 172.65V211.913H169.352V172.65H163.352ZM168.189 167.584C167.016 167.584 165.615 167.93 164.569 169.108C163.582 170.218 163.352 171.581 163.352 172.65H169.352C169.352 172.343 169.428 172.672 169.053 173.094C168.861 173.309 168.635 173.448 168.438 173.522C168.259 173.589 168.156 173.584 168.189 173.584V167.584ZM208.369 167.584H168.189V173.584H208.369V167.584ZM214.743 165.019C213.033 166.729 210.974 167.584 208.369 167.584V173.584C212.499 173.584 216.104 172.143 218.986 169.261L214.743 165.019ZM217.538 158.415C217.538 160.962 216.648 163.114 214.743 165.019L218.986 169.261C221.98 166.268 223.538 162.603 223.538 158.415H217.538ZM214.813 152.108C216.655 153.835 217.538 155.874 217.538 158.415H223.538C223.538 154.221 221.972 150.596 218.916 147.731L214.813 152.108ZM208.369 149.246C210.91 149.246 212.949 150.13 214.676 151.972L219.053 147.868C216.188 144.812 212.563 143.246 208.369 143.246V149.246ZM168.189 149.246H208.369V143.246H168.189V149.246ZM163.352 144.18C163.352 145.25 163.582 146.612 164.569 147.723C165.615 148.9 167.016 149.246 168.189 149.246V143.246C168.156 143.246 168.259 143.241 168.438 143.308C168.635 143.382 168.861 143.521 169.053 143.736C169.428 144.158 169.352 144.487 169.352 144.18H163.352ZM163.352 104.918V144.18H169.352V104.918H163.352ZM160.327 97.8547C162.395 99.9227 163.352 102.232 163.352 104.918H169.352C169.352 100.562 167.706 96.7485 164.57 93.6121L160.327 97.8547ZM153.264 94.8301C155.95 94.8301 158.259 95.7868 160.327 97.8547L164.57 93.6121C161.433 90.4757 157.62 88.8301 153.264 88.8301V94.8301ZM146.202 97.8547C148.27 95.7868 150.579 94.8301 153.264 94.8301V88.8301C148.909 88.8301 145.095 90.4757 141.959 93.6121L146.202 97.8547ZM143.177 104.918C143.177 102.232 144.134 99.9227 146.202 97.8547L141.959 93.6121C138.823 96.7485 137.177 100.562 137.177 104.918H143.177ZM143.177 144.18V104.918H137.177V144.18H143.177ZM138.34 149.246C139.512 149.246 140.913 148.9 141.96 147.723C142.947 146.612 143.177 145.25 143.177 144.18H137.177C137.177 144.487 137.101 144.158 137.476 143.736C137.667 143.521 137.894 143.382 138.09 143.308C138.27 143.241 138.372 143.246 138.34 143.246V149.246ZM98.1596 149.246H138.34V143.246H98.1596V149.246ZM91.556 152.041C93.4605 150.137 95.6128 149.246 98.1596 149.246V143.246C93.9714 143.246 90.3071 144.805 87.3134 147.798L91.556 152.041ZM88.9906 158.415C88.9906 155.81 89.8455 153.752 91.556 152.041L87.3134 147.798C84.4318 150.68 82.9906 154.285 82.9906 158.415H88.9906ZM91.6233 165.088C89.8504 163.197 88.9906 161.023 88.9906 158.415H82.9906C82.9906 162.542 84.4269 166.185 87.2461 169.192L91.6233 165.088Z" fill="#4200FF" mask="url(#path-1-outside-1_1_69)"/>
</svg>
