<svg width="464" height="576" viewBox="0 0 464 576" fill="none" xmlns="http://www.w3.org/2000/svg">
<circle cx="128.14" cy="87.1294" r="75.6294" stroke="#C771BF" stroke-width="23"/>
<circle cx="336.167" cy="129" r="64.2329" stroke="#C771BF" stroke-width="19.5342"/>
<path d="M147.535 304.401L114.27 207.714C113.544 205.641 113.803 203.724 115.047 201.962C116.394 200.201 118.156 199.32 120.332 199.32H120.954C123.648 199.32 126.032 200.097 128.104 201.652C130.28 203.206 131.731 205.227 132.457 207.714L159.815 295.541C159.815 295.644 159.867 295.696 159.971 295.696C160.074 295.696 160.126 295.644 160.126 295.541L187.484 207.714C188.313 205.227 189.764 203.206 191.837 201.652C194.013 200.097 196.397 199.32 198.987 199.32C201.164 199.32 202.873 200.201 204.117 201.962C205.464 203.724 205.775 205.641 205.05 207.714L171.784 304.401C170.955 306.888 169.453 308.909 167.276 310.463C165.204 312.018 162.82 312.795 160.126 312.795H159.193C156.603 312.795 154.219 312.018 152.043 310.463C149.867 308.909 148.364 306.888 147.535 304.401Z" fill="#111111"/>
<path d="M289.989 405.871C278.175 401.83 269.625 397.011 264.34 391.415C259.159 385.715 256.568 378.875 256.568 370.896C256.568 361.776 259.47 354.574 265.273 349.289C271.076 344.004 279.056 341.361 289.211 341.361C298.745 341.361 307.139 342.501 314.394 344.781C316.57 345.507 318.332 346.906 319.679 348.978C321.13 350.947 321.855 353.175 321.855 355.662C321.855 357.424 321.078 358.771 319.523 359.704C317.969 360.637 316.363 360.74 314.704 360.015C306.829 356.699 298.849 355.041 290.766 355.041C285.17 355.041 280.869 356.44 277.864 359.238C274.859 362.036 273.356 365.922 273.356 370.896C273.356 374.938 274.755 378.616 277.553 381.933C280.351 385.145 284.496 387.684 289.989 389.549C303.668 394.109 313.15 399.187 318.435 404.783C323.824 410.379 326.518 417.478 326.518 426.079C326.518 436.546 323.306 444.473 316.881 449.862C310.456 455.251 300.973 457.945 288.434 457.945C280.247 457.945 272.838 456.702 266.205 454.215C261.335 452.246 258.9 448.411 258.9 442.712C258.9 440.95 259.677 439.655 261.231 438.826C262.786 437.997 264.34 437.997 265.895 438.826C272.32 442.245 279.315 443.955 286.88 443.955C301.906 443.955 309.419 437.997 309.419 426.079C309.419 421.519 307.917 417.633 304.911 414.421C302.01 411.208 297.036 408.358 289.989 405.871Z" fill="#111111"/>
<path fill-rule="evenodd" clip-rule="evenodd" d="M252.843 229.588C245.531 219.76 234.582 212.729 221.875 210.601C221.676 211.495 221.422 212.389 221.114 213.277L221.095 213.33L214.35 232.935C226.122 233.206 235.778 241.343 238.609 252.074L252.843 229.588ZM255.491 322.718L254.022 335.67C253.619 336.011 253.22 336.361 252.826 336.72C242.903 345.758 238.568 357.842 238.568 370.896C238.568 380.876 241.354 390.114 246.941 398.081L242.92 433.517C241.447 436.647 240.9 439.836 240.9 442.712C240.9 444.403 241.017 446.146 241.288 447.906L231.658 532.785C228.865 557.402 208.037 576 183.262 576H79.1933C54.4183 576 33.5908 557.402 30.7979 532.785L0.31649 264.124C-2.96117 235.235 19.6375 209.928 48.7119 209.928H97.3009C97.5194 211.052 97.8209 212.17 98.205 213.276L104.966 232.928H48.7119C33.3671 232.928 21.44 246.285 23.1699 261.532L53.6512 530.192C55.1253 543.184 66.1176 553 79.1933 553H183.262C196.338 553 207.33 543.184 208.804 530.192L227.289 367.273L255.491 322.718ZM133.146 209.928H115.031L122.944 232.928H140.311L133.146 209.928ZM158.117 232.928L150.952 209.928H168.989L161.824 232.928H158.117ZM179.63 232.928H196.375L204.288 209.928H186.795L179.63 232.928Z" fill="#C771BF"/>
<path d="M147.535 304.401L114.27 207.714C113.544 205.641 113.803 203.724 115.047 201.962C116.394 200.201 118.156 199.32 120.332 199.32H120.954C123.648 199.32 126.032 200.097 128.104 201.652C130.28 203.206 131.731 205.227 132.457 207.714L159.815 295.541C159.815 295.644 159.867 295.696 159.971 295.696C160.074 295.696 160.126 295.644 160.126 295.541L187.484 207.714C188.313 205.227 189.764 203.206 191.837 201.652C194.013 200.097 196.397 199.32 198.987 199.32C201.164 199.32 202.873 200.201 204.117 201.962C205.464 203.724 205.775 205.641 205.05 207.714L171.784 304.401C170.955 306.888 169.453 308.909 167.276 310.463C165.204 312.018 162.82 312.795 160.126 312.795H159.193C156.603 312.795 154.219 312.018 152.043 310.463C149.867 308.909 148.364 306.888 147.535 304.401Z" fill="#C771BF"/>
<path fill-rule="evenodd" clip-rule="evenodd" d="M187.484 207.714C188.313 205.227 189.764 203.206 191.837 201.652C194.013 200.097 196.397 199.32 198.987 199.32C201.164 199.32 202.873 200.201 204.117 201.962C205.464 203.724 205.775 205.641 205.05 207.714L171.784 304.401C170.955 306.888 169.453 308.909 167.276 310.463C165.204 312.018 162.82 312.795 160.126 312.795H159.193C156.602 312.795 154.219 312.018 152.043 310.463C149.866 308.909 148.364 306.888 147.535 304.401L114.269 207.714C113.544 205.641 113.803 203.724 115.047 201.962C116.394 200.201 118.156 199.32 120.332 199.32H120.954C123.648 199.32 126.032 200.097 128.104 201.652C130.28 203.206 131.731 205.227 132.457 207.714L159.815 295.541C159.815 295.644 159.867 295.696 159.97 295.696C160.074 295.696 160.126 295.644 160.126 295.541L187.484 207.714ZM159.97 282.59L183.677 206.486L183.69 206.449C184.773 203.2 186.705 200.5 189.437 198.452L189.474 198.424L189.512 198.397C192.343 196.374 195.535 195.32 198.987 195.32C202.424 195.32 205.34 196.799 207.341 199.594C209.455 202.396 209.991 205.693 208.829 209.024C208.828 209.028 208.826 209.032 208.825 209.035L175.579 305.666C175.577 305.673 175.575 305.679 175.572 305.686C174.474 308.968 172.463 311.663 169.639 313.691C166.854 315.768 163.633 316.795 160.126 316.795H159.193C155.74 316.795 152.549 315.741 149.718 313.718C146.874 311.687 144.85 308.983 143.747 305.686C143.745 305.679 143.742 305.673 143.74 305.666L110.494 209.035C110.493 209.032 110.491 209.028 110.49 209.024C109.352 205.762 109.776 202.493 111.779 199.656L111.823 199.593L111.869 199.533C113.956 196.803 116.882 195.32 120.332 195.32H120.954C124.461 195.32 127.681 196.347 130.467 198.424C133.317 200.471 135.301 203.21 136.286 206.556L159.97 282.59Z" fill="#C771BF"/>
<path d="M289.989 406.871C278.175 402.83 269.625 398.011 264.34 392.415C259.159 386.715 256.568 379.875 256.568 371.896C256.568 362.776 259.47 355.574 265.273 350.289C271.076 345.004 279.056 342.361 289.211 342.361C298.745 342.361 307.139 343.501 314.394 345.781C316.57 346.507 318.332 347.906 319.679 349.978C321.13 351.947 321.855 354.175 321.855 356.662C321.855 358.424 321.078 359.771 319.523 360.704C317.969 361.637 316.363 361.74 314.704 361.015C306.829 357.699 298.849 356.041 290.766 356.041C285.17 356.041 280.869 357.44 277.864 360.238C274.859 363.036 273.356 366.922 273.356 371.896C273.356 375.938 274.755 379.616 277.553 382.933C280.351 386.145 284.496 388.684 289.989 390.549C303.668 395.109 313.15 400.187 318.435 405.783C323.824 411.379 326.518 418.478 326.518 427.079C326.518 437.546 323.306 445.473 316.881 450.862C310.456 456.251 300.973 458.945 288.434 458.945C280.247 458.945 272.838 457.702 266.205 455.215C261.335 453.246 258.9 449.411 258.9 443.712C258.9 441.95 259.677 440.655 261.231 439.826C262.786 438.997 264.34 438.997 265.895 439.826C272.32 443.245 279.315 444.955 286.88 444.955C301.906 444.955 309.419 438.997 309.419 427.079C309.419 422.519 307.917 418.633 304.911 415.421C302.01 412.208 297.036 409.358 289.989 406.871Z" fill="#C771BF"/>
<path fill-rule="evenodd" clip-rule="evenodd" d="M267.246 434.413L267.244 434.412L264.895 438.826C263.34 437.997 261.786 437.997 260.231 438.826C258.677 439.655 257.9 440.95 257.9 442.712C257.9 448.411 260.335 452.246 265.205 454.215C271.838 456.702 279.247 457.945 287.434 457.945C299.973 457.945 309.456 455.251 315.881 449.862C322.306 444.474 325.518 436.546 325.518 426.079C325.518 417.478 322.824 410.379 317.435 404.783C312.15 399.187 302.668 394.109 288.989 389.549C283.496 387.684 279.351 385.145 276.553 381.933C273.755 378.616 272.356 374.938 272.356 370.896C272.356 365.922 273.859 362.036 276.864 359.238C279.869 356.44 284.17 355.041 289.766 355.041C297.849 355.041 305.829 356.699 313.704 360.015C315.363 360.74 316.969 360.637 318.523 359.704C320.078 358.771 320.855 357.424 320.855 355.662C320.855 353.175 320.13 350.947 318.679 348.978C317.332 346.906 315.57 345.507 313.394 344.781C306.139 342.501 297.745 341.361 288.211 341.361C278.056 341.361 270.076 344.004 264.273 349.289C258.47 354.574 255.568 361.776 255.568 370.896C255.568 378.876 258.159 385.715 263.34 391.415C268.625 397.011 277.175 401.83 288.989 405.871C296.036 408.358 301.01 411.208 303.911 414.421C306.917 417.633 308.419 421.519 308.419 426.079C308.419 437.997 300.906 443.955 285.88 443.955C278.315 443.955 271.32 442.245 264.895 438.826" fill="#C771BF"/>
<line x1="292.204" y1="216.461" x2="155.896" y2="427.547" stroke="#C771BF" stroke-width="20" stroke-linecap="round"/>
<path fill-rule="evenodd" clip-rule="evenodd" d="M293.486 232.422H283.879L281.336 251.646L293.486 232.422ZM296.714 253.126H423.157C436.817 253.126 441.355 268.149 439.564 281.691L416.17 492.904C414.684 504.143 405.101 512.541 393.764 512.541H280.156C268.819 512.541 259.236 504.143 257.75 492.904L253.695 460.611L246.267 516.767C253.489 527.966 266.062 535.245 280.156 535.245H393.764C413.981 535.245 431.07 520.268 433.721 500.225L463.114 278.012C466.308 253.864 447.516 232.422 423.157 232.422H309.799L296.714 253.126Z" fill="#C771BF"/>
</svg>
