<svg width="526" height="526" viewBox="0 0 526 526" fill="none" xmlns="http://www.w3.org/2000/svg">
<path fill-rule="evenodd" clip-rule="evenodd" d="M334.965 500.117C312.191 507.02 288.029 510.732 263 510.732C208.079 510.732 157.332 492.859 116.258 462.614L334.965 329.046L334.965 500.117ZM506.927 306.491C509.427 292.371 510.732 277.838 510.732 263C510.732 188.776 478.089 122.177 426.377 76.7732L280.496 165.865L351.923 210.226H352.411V210.529L506.927 306.491ZM503.181 323.938L502.839 324.489L352.411 231.065V318.391V494.105C426.544 465.405 483.42 402.063 503.181 323.938ZM263.9 155.558L412.031 65.092C370.56 33.8137 318.946 15.2685 263 15.2685C237.331 15.2685 212.574 19.1725 189.29 26.4191L189.29 201.123L262.865 156.19L263.436 155.27L263.9 155.558ZM171.844 32.578L171.844 295.528L22.6208 202.852C42.0432 124.98 98.3155 61.6905 171.844 32.578ZM15.2685 263C15.2685 248.692 16.4815 234.667 18.8103 221.023L246.663 362.531L101.722 451.049C48.7955 405.615 15.2685 338.223 15.2685 263ZM526 263C526 408.251 408.251 526 263 526C117.749 526 0 408.251 0 263C0 117.749 117.749 0 263 0C408.251 0 526 117.749 526 263Z" fill="#39FF14"/>
</svg>
