<svg width="570" height="601" viewBox="0 0 570 601" fill="none" xmlns="http://www.w3.org/2000/svg">
<path d="M88.3518 38.8966C83.1474 29.7124 75.1878 25.1204 64.473 25.1204C53.7582 25.1204 45.7986 29.7124 40.5943 38.8966C35.39 48.0807 32.7878 63.8468 32.7878 86.1948C32.7878 108.543 35.39 124.309 40.5943 133.493C45.7986 142.677 53.7582 147.269 64.473 147.269C75.1878 147.269 83.1474 142.677 88.3518 133.493C93.5561 124.309 96.1583 108.543 96.1583 86.1948C96.1583 63.8468 93.5561 48.0807 88.3518 38.8966ZM112.69 151.861C102.128 165.484 86.0557 172.296 64.473 172.296C42.8903 172.296 26.7416 165.484 16.0267 151.861C5.465 138.238 0.184128 116.349 0.184128 86.1948C0.184128 56.0403 5.465 34.1514 16.0267 20.5283C26.7416 6.90519 42.8903 0.0936334 64.473 0.0936334C86.0557 0.0936334 102.128 6.90519 112.69 20.5283C123.405 34.1514 128.762 56.0403 128.762 86.1948C128.762 116.349 123.405 138.238 112.69 151.861ZM171.847 64.1529C169.704 65.8367 167.408 66.0663 164.959 64.8417C162.662 63.6172 161.514 61.7038 161.514 59.1017V49.9175C161.514 41.3457 164.959 34.381 171.847 29.0236L196.414 10.1962C203.302 4.99183 211.109 2.38966 219.834 2.38966H226.722C230.242 2.38966 233.227 3.69074 235.676 6.29291C238.278 8.89508 239.58 11.9565 239.58 15.477V156.913C239.58 160.433 238.278 163.495 235.676 166.097C233.227 168.699 230.242 170 226.722 170H219.834C216.313 170 213.252 168.699 210.65 166.097C208.047 163.495 206.746 160.433 206.746 156.913V37.7486L206.517 37.519L206.287 37.7486L171.847 64.1529ZM382.082 38.8966C376.878 29.7124 368.918 25.1204 358.204 25.1204C347.489 25.1204 339.529 29.7124 334.325 38.8966C329.121 48.0807 326.518 63.8468 326.518 86.1948C326.518 108.543 329.121 124.309 334.325 133.493C339.529 142.677 347.489 147.269 358.204 147.269C368.918 147.269 376.878 142.677 382.082 133.493C387.287 124.309 389.889 108.543 389.889 86.1948C389.889 63.8468 387.287 48.0807 382.082 38.8966ZM406.42 151.861C395.859 165.484 379.786 172.296 358.204 172.296C336.621 172.296 320.472 165.484 309.757 151.861C299.196 138.238 293.915 116.349 293.915 86.1948C293.915 56.0403 299.196 34.1514 309.757 20.5283C320.472 6.90519 336.621 0.0936334 358.204 0.0936334C379.786 0.0936334 395.859 6.90519 406.42 20.5283C417.135 34.1514 422.493 56.0403 422.493 86.1948C422.493 116.349 417.135 138.238 406.42 151.861ZM528.948 38.8966C523.743 29.7124 515.784 25.1204 505.069 25.1204C494.354 25.1204 486.395 29.7124 481.19 38.8966C475.986 48.0807 473.384 63.8468 473.384 86.1948C473.384 108.543 475.986 124.309 481.19 133.493C486.395 142.677 494.354 147.269 505.069 147.269C515.784 147.269 523.743 142.677 528.948 133.493C534.152 124.309 536.754 108.543 536.754 86.1948C536.754 63.8468 534.152 48.0807 528.948 38.8966ZM553.286 151.861C542.724 165.484 526.652 172.296 505.069 172.296C483.486 172.296 467.338 165.484 456.623 151.861C446.061 138.238 440.78 116.349 440.78 86.1948C440.78 56.0403 446.061 34.1514 456.623 20.5283C467.338 6.90519 483.486 0.0936334 505.069 0.0936334C526.652 0.0936334 542.724 6.90519 553.286 20.5283C564 34.1514 569.358 56.0403 569.358 86.1948C569.358 116.349 564 138.238 553.286 151.861Z" fill="#2BDA0B"/>
<path d="M22.9813 278.153C20.8383 279.837 18.5423 280.066 16.0932 278.842C13.7971 277.617 12.6491 275.704 12.6491 273.102V263.918C12.6491 255.346 16.0932 248.381 22.9813 243.024L47.5488 224.196C54.4369 218.992 62.2434 216.39 70.9683 216.39H77.8564C81.377 216.39 84.3619 217.691 86.811 220.293C89.4131 222.895 90.7142 225.956 90.7142 229.477V370.913C90.7142 374.433 89.4131 377.495 86.811 380.097C84.3619 382.699 81.377 384 77.8564 384H70.9683C67.4478 384 64.3864 382.699 61.7842 380.097C59.182 377.495 57.881 374.433 57.881 370.913V251.749L57.6514 251.519L57.4218 251.749L22.9813 278.153ZM233.217 252.897C228.013 243.712 220.053 239.12 209.338 239.12C198.624 239.12 190.664 243.712 185.46 252.897C180.255 262.081 177.653 277.847 177.653 300.195C177.653 322.543 180.255 338.309 185.46 347.493C190.664 356.677 198.624 361.269 209.338 361.269C220.053 361.269 228.013 356.677 233.217 347.493C238.421 338.309 241.024 322.543 241.024 300.195C241.024 277.847 238.421 262.081 233.217 252.897ZM257.555 365.861C246.993 379.484 230.921 386.296 209.338 386.296C187.756 386.296 171.607 379.484 160.892 365.861C150.33 352.238 145.049 330.349 145.049 300.195C145.049 270.04 150.33 248.151 160.892 234.528C171.607 220.905 187.756 214.094 209.338 214.094C230.921 214.094 246.993 220.905 257.555 234.528C268.27 248.151 273.627 270.04 273.627 300.195C273.627 330.349 268.27 352.238 257.555 365.861ZM316.712 278.153C314.569 279.837 312.273 280.066 309.824 278.842C307.528 277.617 306.38 275.704 306.38 273.102V263.918C306.38 255.346 309.824 248.381 316.712 243.024L341.279 224.196C348.168 218.992 355.974 216.39 364.699 216.39H371.587C375.108 216.39 378.093 217.691 380.542 220.293C383.144 222.895 384.445 225.956 384.445 229.477V370.913C384.445 374.433 383.144 377.495 380.542 380.097C378.093 382.699 375.108 384 371.587 384H364.699C361.178 384 358.117 382.699 355.515 380.097C352.913 377.495 351.612 374.433 351.612 370.913V251.749L351.382 251.519L351.152 251.749L316.712 278.153ZM526.948 252.897C521.743 243.712 513.784 239.12 503.069 239.12C492.354 239.12 484.395 243.712 479.19 252.897C473.986 262.081 471.384 277.847 471.384 300.195C471.384 322.543 473.986 338.309 479.19 347.493C484.395 356.677 492.354 361.269 503.069 361.269C513.784 361.269 521.743 356.677 526.948 347.493C532.152 338.309 534.754 322.543 534.754 300.195C534.754 277.847 532.152 262.081 526.948 252.897ZM551.286 365.861C540.724 379.484 524.652 386.296 503.069 386.296C481.486 386.296 465.338 379.484 454.623 365.861C444.061 352.238 438.78 330.349 438.78 300.195C438.78 270.04 444.061 248.151 454.623 234.528C465.338 220.905 481.486 214.094 503.069 214.094C524.652 214.094 540.724 220.905 551.286 234.528C562 248.151 567.358 270.04 567.358 300.195C567.358 330.349 562 352.238 551.286 365.861Z" fill="#2BDA0B"/>
<path d="M92.3518 466.897C87.1474 457.712 79.1878 453.12 68.473 453.12C57.7582 453.12 49.7986 457.712 44.5943 466.897C39.39 476.081 36.7878 491.847 36.7878 514.195C36.7878 536.543 39.39 552.309 44.5943 561.493C49.7986 570.677 57.7582 575.269 68.473 575.269C79.1878 575.269 87.1474 570.677 92.3518 561.493C97.5561 552.309 100.158 536.543 100.158 514.195C100.158 491.847 97.5561 476.081 92.3518 466.897ZM116.69 579.861C106.128 593.484 90.0557 600.296 68.473 600.296C46.8903 600.296 30.7416 593.484 20.0267 579.861C9.465 566.238 4.18413 544.349 4.18413 514.195C4.18413 484.04 9.465 462.151 20.0267 448.528C30.7416 434.905 46.8903 428.094 68.473 428.094C90.0557 428.094 106.128 434.905 116.69 448.528C127.405 462.151 132.762 484.04 132.762 514.195C132.762 544.349 127.405 566.238 116.69 579.861ZM175.847 492.153C173.704 493.837 171.408 494.066 168.959 492.842C166.662 491.617 165.514 489.704 165.514 487.102V477.918C165.514 469.346 168.959 462.381 175.847 457.024L200.414 438.196C207.302 432.992 215.109 430.39 223.834 430.39H230.722C234.242 430.39 237.227 431.691 239.676 434.293C242.278 436.895 243.58 439.956 243.58 443.477V584.913C243.58 588.433 242.278 591.495 239.676 594.097C237.227 596.699 234.242 598 230.722 598H223.834C220.313 598 217.252 596.699 214.65 594.097C212.047 591.495 210.746 588.433 210.746 584.913V465.749L210.517 465.519L210.287 465.749L175.847 492.153ZM386.082 466.897C380.878 457.712 372.918 453.12 362.204 453.12C351.489 453.12 343.529 457.712 338.325 466.897C333.121 476.081 330.518 491.847 330.518 514.195C330.518 536.543 333.121 552.309 338.325 561.493C343.529 570.677 351.489 575.269 362.204 575.269C372.918 575.269 380.878 570.677 386.082 561.493C391.287 552.309 393.889 536.543 393.889 514.195C393.889 491.847 391.287 476.081 386.082 466.897ZM410.42 579.861C399.859 593.484 383.786 600.296 362.204 600.296C340.621 600.296 324.472 593.484 313.757 579.861C303.196 566.238 297.915 544.349 297.915 514.195C297.915 484.04 303.196 462.151 313.757 448.528C324.472 434.905 340.621 428.094 362.204 428.094C383.786 428.094 399.859 434.905 410.42 448.528C421.135 462.151 426.493 484.04 426.493 514.195C426.493 544.349 421.135 566.238 410.42 579.861ZM469.577 492.153C467.434 493.837 465.138 494.066 462.689 492.842C460.393 491.617 459.245 489.704 459.245 487.102V477.918C459.245 469.346 462.689 462.381 469.577 457.024L494.145 438.196C501.033 432.992 508.839 430.39 517.564 430.39H524.452C527.973 430.39 530.958 431.691 533.407 434.293C536.009 436.895 537.31 439.956 537.31 443.477V584.913C537.31 588.433 536.009 591.495 533.407 594.097C530.958 596.699 527.973 598 524.452 598H517.564C514.044 598 510.982 596.699 508.38 594.097C505.778 591.495 504.477 588.433 504.477 584.913V465.749L504.247 465.519L504.018 465.749L469.577 492.153Z" fill="#2BDA0B"/>
</svg>
