<svg width="688" height="761" viewBox="0 0 688 761" fill="none" xmlns="http://www.w3.org/2000/svg">
<path fill-rule="evenodd" clip-rule="evenodd" d="M528.27 158.5C528.27 249.027 442.838 317 344.705 317C246.573 317 161.14 249.027 161.14 158.5C161.14 67.9734 246.573 0 344.705 0C442.838 0 528.27 67.9734 528.27 158.5ZM344.705 297C435.04 297 508.27 234.991 508.27 158.5C508.27 82.0086 435.04 20 344.705 20C254.371 20 181.14 82.0086 181.14 158.5C181.14 234.991 254.371 297 344.705 297ZM279.168 196L278.201 195.951C258.677 194.951 243.14 178.784 243.14 159C243.14 139.216 258.677 123.049 278.201 122.049L279.168 122H280.14H410.426C430.861 122 447.426 138.565 447.426 159C447.426 179.435 430.861 196 410.426 196H280.14H279.168ZM277.179 216V215.924C247.075 214.384 223.14 189.487 223.14 159C223.14 128.513 247.075 103.616 277.179 102.076V102H280.14H297.179H410.426C441.906 102 467.426 127.52 467.426 159C467.426 190.48 441.906 216 410.426 216H297.179H280.14H277.179ZM182.228 573.602C182.257 572.721 182.228 571.84 182.14 570.964V369H506.14V570.964C506.053 571.84 506.024 572.722 506.052 573.602C506.111 575.393 506.14 577.193 506.14 579C506.14 668.47 433.611 741 344.14 741C254.67 741 182.14 668.47 182.14 579C182.14 577.193 182.17 575.393 182.228 573.602ZM181.14 349C170.647 349 162.14 357.507 162.14 368V571C162.14 571.658 162.174 572.308 162.239 572.949C162.173 574.958 162.14 576.975 162.14 579C162.14 679.516 243.625 761 344.14 761C444.656 761 526.14 679.516 526.14 579C526.14 576.975 526.107 574.958 526.042 572.949C526.107 572.308 526.14 571.658 526.14 571V368C526.14 357.507 517.634 349 507.14 349H181.14ZM23.6645 564.583C23.3718 565.266 22.9488 566.316 22.4922 567.65C21.5009 570.547 20.4834 574.398 20.1297 578.521C19.4504 586.439 21.0983 593.626 28.9343 599.347C40.6274 607.885 50.501 606.711 58.506 603.491C62.8369 601.749 66.5529 599.358 69.2301 597.324C70.2401 596.557 71.0559 595.876 71.6517 595.355L123.864 516.404V413.071L23.6645 564.583ZM143.864 398.932V522.419L87.048 608.331C87.048 608.331 54.1404 642.516 17.1404 615.5C-13.3596 593.23 6.14035 554.825 6.14035 554.825L108.741 399.682L119.773 383L136.455 394.032L143.864 398.932ZM24.0383 563.75C24.0445 563.737 24.0461 563.734 24.0427 563.741L24.0383 563.75ZM665.674 570.395C665.24 569.053 664.835 567.997 664.554 567.309L566.904 414.14L565.174 517.459L616.058 597.272C616.645 597.804 617.449 598.498 618.446 599.282C621.089 601.36 624.765 603.814 629.066 605.628C637.016 608.981 646.868 610.321 658.703 601.98C666.633 596.39 668.401 589.232 667.855 581.303C667.57 577.175 666.617 573.307 665.674 570.395ZM545.076 523.138L547.143 399.669L554.634 394.894L571.498 384.142L582.25 401.006L682.239 557.844C682.239 557.844 701.093 596.571 670.225 618.327C632.778 644.72 600.447 609.989 600.447 609.989L545.076 523.138Z" fill="#AA00FF"/>
</svg>
